<svg xmlns="http://www.w3.org/2000/svg" xmlns:xlink="http://www.w3.org/1999/xlink" width="24" height="32" viewBox="0 0 24 32">
    <defs>
        <path id="a" d="M0 30.57V.261h23.709V30.57z"/>
    </defs>
    <g fill="none" fill-rule="evenodd">
        <g transform="translate(0 .168)">
            <mask id="b" fill="#fff">
                <use xlink:href="#a"/>
            </mask>
            <path fill="#DD2741" d="M15.564 7.005V1.717l6.643 6.42-5.625.016c-.346 0-.595-.087-.761-.264-.298-.317-.26-.843-.257-.884m8.114 1.405c-.002-.003-.001-.007-.002-.01-.008-.018-.024-.032-.034-.05-.018-.03-.035-.063-.061-.09h-.002v-.002L15.432.385c-.012-.011-.027-.015-.04-.025-.032-.025-.063-.05-.101-.065-.036-.014-.074-.017-.111-.022-.018-.002-.035-.011-.054-.011H2.182C.979.262 0 1.228 0 2.415v26.001c0 1.188.979 2.153 2.182 2.153h19.345c1.203 0 2.182-.965 2.182-2.153V8.566v-.002a.413.413 0 0 0-.031-.154" mask="url(#b)"/>
        </g>
        <path fill="#FEFEFE" d="M17.052 18.47c.498 0 .645-.002 1.132.12.487.123.494.372.41.423-.084.052-.323.082-.477.082-.496 0-1.11-.224-1.972-.589.331-.024.634-.036.907-.036m-7.102.62c.19-.336.388-.69.59-1.065.492-.919.803-1.637 1.034-2.228a7.379 7.379 0 0 0 1.708 2.093c.085.07.174.14.267.21-1.37.268-2.555.594-3.599.99m1.6-8.683c.272 0 .428.678.44 1.314.013.636-.138 1.082-.324 1.412-.155-.488-.23-1.26-.23-1.763 0 0-.012-.963.114-.963M6.188 22.59c.154-.417.766-1.242 1.672-1.974.056-.046.197-.176.325-.296-.947 1.49-1.58 2.084-1.997 2.27m7.678-5.404c-.773-.712-1.418-1.7-1.82-2.788l.07-.282s.434-2.44.319-3.265a.946.946 0 0 0-.056-.234l-.038-.096c-.119-.27-.35-.556-.715-.54l-.213-.007h-.007c-.406 0-.736.205-.823.512-.264.96.008 2.397.502 4.258l-.127.303c-.353.85-.796 1.707-1.187 2.463l-.05.098a41.672 41.672 0 0 1-1.123 2.04l-.35.181c-.025.013-.624.326-.764.41-1.19.701-1.98 1.497-2.111 2.13-.042.201-.011.46.201.579l.338.168c.146.073.3.109.46.109.848 0 1.832-1.042 3.189-3.378a32.083 32.083 0 0 1 4.913-1.152c1.19.661 2.656 1.12 3.58 1.12.164 0 .306-.014.421-.045a.715.715 0 0 0 .418-.281c.179-.267.215-.633.167-1.01-.015-.11-.105-.249-.203-.342-.274-.267-.882-.409-1.808-.42a15.213 15.213 0 0 0-2.174.157c-.356-.202-.722-.422-1.01-.688"/>
    </g>
</svg>
