<svg xmlns="http://www.w3.org/2000/svg" xmlns:xlink="http://www.w3.org/1999/xlink" width="259" height="292" viewBox="0 0 259 292">
    <defs>
        <path id="a" d="M8.718.037H.154v4.629h8.564V.037z"/>
        <path id="c" d="M8.62.037H.055v4.629H8.62V.037z"/>
        <circle id="e" cx="30" cy="30" r="30"/>
        <path id="g" d="M0 171.083h54.766V0H0z"/>
        <path id="i" d="M0 49.675V.426h38.527v49.25z"/>
        <path id="k" d="M.386.05h18.808v21.362H.386z"/>
        <path id="m" d="M26.753.37v43.187H.247V.37h26.506z"/>
        <path id="o" d="M8.872 5.117H.306V.325h8.566z"/>
        <circle id="q" cx="4.916" cy="4.916" r="4.916"/>
        <circle id="r" cx="4.916" cy="4.916" r="4.916"/>
    </defs>
    <g fill="none" fill-rule="evenodd">
        <path fill="#0D6192" d="M-232-96h734a8 8 0 0 1 8 8v512h-750V-88a8 8 0 0 1 8-8z"/>
        <g transform="translate(-1)">
            <circle cx="132.669" cy="126.276" r="87.863" stroke="#FFCE05" stroke-dasharray="2,16" stroke-linecap="round" stroke-linejoin="round" stroke-width="2"/>
            <path fill="#FFF" d="M137.303 45.8c.009 2.741.337 5.472.365 8.213.027 2.768-.15 5.782-1.535 8.241-1.536 2.73-4.81 3.791-7.747 3.115-3.16-.726-5.774-3.455-7.106-6.336-1.17-2.529-1.37-5.452.305-7.797 1.342-1.876 3.371-3.064 4.827-4.833 1.403-1.706 1.595-4.289.443-6.18-.967-1.589-2.926-2.169-4.575-1.745-1.713.44-2.88 2.037-3.119 3.916-.073.575-.424 1.065-1.055 1.065-.52 0-1.128-.488-1.054-1.065.33-2.605 1.643-4.768 4.104-5.782 2.044-.843 4.5-.35 6.192 1.02 2.043 1.652 2.659 4.441 2.206 6.952-.44 2.441-2.315 4.14-4.085 5.679-1.686 1.466-3.145 2.906-3.01 5.295.166 2.97 2.498 5.85 5.007 7.201 2.401 1.295 5.526.765 6.916-1.704 1.302-2.314 1.225-5.372 1.16-7.943-.061-2.439-.341-4.87-.349-7.311-.004-1.374 2.106-1.373 2.11 0M142.464 2.03c1.134-1.34 3.338-1.008 4.812-.525 1.291.423 2.321 1.26 3.11 2.359 1.538 2.142 1.672 5.154 1.61 7.696-.064 2.7-.382 5.426-.757 8.096-.407 2.893-1.037 5.773-2.092 8.5-1.134 2.929-2.797 5.71-5.257 7.693-2.724 2.193-6.09 3.119-9.54 3.137-1.36.007-1.36-2.122 0-2.13 2.897-.015 5.661-.735 8.012-2.487 2.087-1.555 3.51-3.894 4.537-6.254 1.142-2.626 1.758-5.499 2.2-8.32.409-2.604.675-5.274.778-7.91.08-2.056.053-4.336-.878-6.219-.414-.837-1.019-1.48-1.837-1.917-.468-.25-.996-.355-1.514-.439-.55-.089-1.291-.248-1.693.226-.885 1.045-2.37-.468-1.491-1.506"/>
            <path fill="#FFF" d="M126.782 3.346a4.51 4.51 0 0 0-1.79.699c-.886.58-1.407 1.603-1.72 2.588-.786 2.467-.554 5.22-.33 7.759.485 5.48 1.178 11.253 4 16.078 1.091 1.866 2.56 3.483 4.4 4.612 2.095 1.286 4.534 1.762 6.96 1.775 1.36.007 1.361 2.136 0 2.13-3.02-.017-6.021-.711-8.562-2.41-2.28-1.525-4.006-3.744-5.246-6.181-2.594-5.099-3.252-10.977-3.713-16.61-.247-3.018-.326-6.267.987-9.066.6-1.28 1.651-2.352 2.926-2.94 1.563-.72 4.222-1.253 5.494.25.879 1.038-.606 2.551-1.491 1.506-.446-.526-1.32-.286-1.915-.19z"/>
            <g transform="translate(136.255 .119)">
                <mask id="b" fill="#fff">
                    <use xlink:href="#a"/>
                </mask>
                <path fill="#FFCE05" d="M.154 2.962c0 .94.755 1.704 1.687 1.704h5.19c.932 0 1.687-.763 1.687-1.704V1.74C8.718.8 7.963.037 7.031.037H1.84C.91.037.154.8.154 1.741v1.22z" mask="url(#b)"/>
            </g>
            <g transform="translate(126.507 .119)">
                <mask id="d" fill="#fff">
                    <use xlink:href="#c"/>
                </mask>
                <path fill="#FFCE05" d="M.055 2.962c0 .94.756 1.704 1.688 1.704h5.19c.931 0 1.687-.763 1.687-1.704V1.74C8.62.8 7.864.037 6.932.037h-5.19C.812.037.056.8.056 1.741v1.22z" mask="url(#d)"/>
            </g>
            <path fill="#FFCE05" d="M142.068 33.623l2.327 2.72-6.152 3.574v6.416h-2.1v-9.99s1.441-.221 5.925-2.72M130.22 33.623l-2.327 2.72 6.01 3.574v6.416h2.24v-9.99s-1.44-.221-5.924-2.72M120.05 36.78l1.65 2.132-2.246 2.383-2.504-1.966z"/>
            <path fill="#BCD0D7" d="M105.703 45.69c0 4.25 3.413 7.696 7.623 7.696 4.21 0 7.623-3.446 7.623-7.696s-3.413-7.696-7.623-7.696c-4.21 0-7.623 3.446-7.623 7.696"/>
            <path fill="#FFF" d="M106.406 45.69c0 3.852 3.105 6.986 6.92 6.986 3.816 0 6.92-3.134 6.92-6.986s-3.104-6.986-6.92-6.986c-3.815 0-6.92 3.134-6.92 6.986m-1.406 0c0-4.635 3.735-8.405 8.326-8.405 4.592 0 8.326 3.77 8.326 8.405s-3.734 8.406-8.326 8.406c-4.59 0-8.326-3.771-8.326-8.406"/>
            <path fill="#878787" d="M112.454 45.69c0 .486.39.88.872.88a.876.876 0 0 0 .873-.88c0-.486-.39-.88-.873-.88a.877.877 0 0 0-.872.88"/>
            <g transform="translate(101.87 93.87)">
                <mask id="f" fill="#fff">
                    <use xlink:href="#e"/>
                </mask>
                <use fill="#F7EEC8" xlink:href="#e"/>
                <g mask="url(#f)">
                    <g transform="translate(3.412 5.718)">
                        <path fill="#E09B7E" d="M16.778 21.44c.233 1.572-.624 3.01-1.915 3.213-1.29.202-2.526-.908-2.76-2.481l-.293-1.971c-.234-1.573.623-3.011 1.914-3.213 1.291-.203 2.527.908 2.761 2.48l.293 1.971zM37.635 21.253c-.235 1.572.623 3.01 1.914 3.213 1.29.202 2.526-.909 2.76-2.481l.293-1.97c.234-1.574-.624-3.012-1.914-3.215-1.292-.202-2.527.91-2.76 2.482l-.293 1.97zM14.96 42.71s-13.554.215-13.213 47.848l4.508-.14c.482-5.591 5.712-35.884 11.185-37.672L14.96 42.71z"/>
                        <path fill="#E09B7E" d="M8.574 100.509c-.12-2.452-1.87-9.614-2.728-10.651l-4.09.28c0 2.738-1.08 4.895.105 7.528.956 2.124 2.45 3.916 3.955 5.644 2.214 2.541 2.863-.652 2.758-2.801M40.055 43.13s12.882-.205 12.541 47.428l-4.51-.14c-.48-5.591-5.164-35.324-10.637-37.112l2.606-10.177z"/>
                        <path fill="#E09B7E" d="M45.77 100.509c.12-2.452 1.868-9.614 2.726-10.651l4.092.28c0 2.738 1.079 4.895-.106 7.528-.956 2.124-2.45 3.916-3.955 5.644-2.214 2.541-2.863-.652-2.758-2.801"/>
                        <path fill="#059183" d="M7.715 80.879c2.016-10.976 5.808-26.854 9.725-28.133L14.96 42.71s-11.382.188-13.022 36.88c1.93.415 3.863.81 5.777 1.289"/>
                        <path fill="#21B79E" d="M46.799 81.361a290.852 290.852 0 0 1 5.61-1.942c-1.572-36.452-12.354-36.29-12.354-36.29L37.45 53.306c3.962 1.295 7.51 17.232 9.35 28.055"/>
                        <mask id="h" fill="#fff">
                            <use xlink:href="#g"/>
                        </mask>
                        <path fill="#E09B7E" d="M22.548 41.777h4.623V30.479h-4.623z" mask="url(#h)"/>
                        <path fill="#EDB6A4" d="M27.171 41.777h4.623V30.479H27.17z" mask="url(#h)"/>
                        <path fill="#EAAF92" d="M27.146 8.072l-13.348 3.921s-2.233 24.663 13.348 24.83V8.072z" mask="url(#h)"/>
                        <path fill="#F4C3AE" d="M27.145 6.96l13.4 5.593s2.233 24.103-13.4 24.28V6.96z" mask="url(#h)"/>
                        <path fill="#00A99D" d="M22.57 41.03c-.047.002-.09.002-.139.005-4.12.225-9.682 1.21-12.014 4.476-2.742 3.839 4.512 33.237 3.536 44.67-.5 5.87 7.687 8.233 13.195 8.35V41.1a12.124 12.124 0 0 0-.848-.072h-3.73z" mask="url(#h)"/>
                        <path fill="#2DD3BB" d="M43.925 45.51c-2.356-3.299-8.008-4.27-12.141-4.481h-3.752c-.368.022-.657.048-.836.073V98.53c5.506-.116 13.837-2.494 13.194-8.348-1.093-9.94 6.277-40.832 3.535-44.671" mask="url(#h)"/>
                        <path fill="#603813" d="M25.707 98.26L14 85.689s-4.661 17.054 5.705 79.234h3.818l2.183-66.661z" mask="url(#h)"/>
                        <path fill="#754C24" d="M28.636 98.26l11.705-12.572s4.662 17.054-5.704 79.234h-3.819L28.636 98.26z" mask="url(#h)"/>
                        <path fill="#42210B" d="M23.525 164.922h-3.82s-9.868 3.92-8.777 6.162h12.82l-.223-6.162z" mask="url(#h)"/>
                        <path fill="#603813" d="M30.858 164.922h3.818s9.87 3.92 8.778 6.162h-12.82l.224-6.162z" mask="url(#h)"/>
                        <path fill="#564205" d="M14.76 16.376c.724-10.02 7.75-3.167 12.876-3.103 4.995.063 10.954-7.046 12.07 3.232.64 5.9.549 5.385.549 5.385S46.139-.004 27.308 0C6.993.005 14.326 23.464 14.326 23.464s-.062-.243.433-7.088z" mask="url(#h)"/>
                        <path fill="#1A1A1A" d="M21.845 20.64c0 .696-.549 1.26-1.228 1.26-.677 0-1.227-.564-1.227-1.26 0-.697.55-1.261 1.227-1.261.68 0 1.228.564 1.228 1.26M34.953 20.64c0 .696-.55 1.26-1.228 1.26-.678 0-1.227-.564-1.227-1.26 0-.697.549-1.261 1.227-1.261s1.228.564 1.228 1.26" mask="url(#h)"/>
                        <path fill="#D3896E" d="M25.467 19.394v5.495c0 .967.763 1.75 1.705 1.75.94 0 1.704-.783 1.704-1.75v-5.495h-3.409z" mask="url(#h)"/>
                        <path fill="#C62424" d="M22.65 29.498h8.642L29.529 30.8l-2.519.56-2.359-.56z" mask="url(#h)"/>
                        <path fill="#00A99D" d="M8.65 84L0 82.794l.538-4.07 8.65 1.205z" mask="url(#h)"/>
                        <path fill="#2DD3BB" d="M54.765 83.263l-8.494 2.063-.921-3.998 8.494-2.064z" mask="url(#h)"/>
                        <path fill="#059183" d="M22.234 38.602l4.961 2.5-3.688 4.782-7.093-4.295z" mask="url(#h)"/>
                        <path fill="#21B79E" d="M31.924 38.602l-4.962 2.5 3.689 4.782 7.092-4.295z" mask="url(#h)"/>
                        <path fill="#603813" d="M13.898 83.977c.162 2.373.202 4.492.055 6.204-.5 5.87 7.687 8.233 13.194 8.35V83.977h-13.25z" mask="url(#h)"/>
                        <path fill="#754C24" d="M40.441 83.977H27.195V98.53c5.508-.117 13.838-2.494 13.195-8.35-.175-1.594-.132-3.73.051-6.204" mask="url(#h)"/>
                        <path fill="#42210B" d="M13.323 86.03h13.821v-3.734h-13.82z" mask="url(#h)"/>
                        <path fill="#603813" d="M27.144 86.03h13.82v-3.734h-13.82z" mask="url(#h)"/>
                    </g>
                </g>
            </g>
            <path fill="#FFF" d="M61.657 101.268l1.402-7.952 8.288 11.418-8.464-1.47c-.52-.09-.87-.287-1.074-.598-.363-.556-.166-1.336-.152-1.398m11.83 4.266v-.016c-.007-.029-.027-.054-.037-.083-.02-.051-.036-.106-.069-.152l-.002-.002v-.003l-10.164-14c-.015-.02-.036-.03-.053-.049-.041-.045-.082-.091-.135-.124-.05-.031-.106-.046-.16-.063-.028-.008-.05-.025-.079-.03l-19.47-3.433c-1.808-.32-3.537.873-3.852 2.659l-6.895 39.105c-.315 1.786.902 3.498 2.71 3.817l29.096 5.13c1.81.32 3.537-.874 3.852-2.659l5.264-29.856v-.002a.63.63 0 0 0-.006-.24"/>
            <g transform="rotate(10 -486.96 244.178)">
                <mask id="j" fill="#fff">
                    <use xlink:href="#i"/>
                </mask>
                <path fill="#DD2741" d="M25.29 11.382V2.791l10.796 10.433-9.14.024c-.563 0-.967-.14-1.238-.429-.482-.515-.42-1.369-.417-1.437m13.185 2.285c-.002-.006-.001-.011-.003-.016-.012-.03-.038-.053-.054-.08-.03-.051-.057-.105-.1-.148l-.003-.001-.001-.003L25.078.626c-.02-.018-.044-.025-.064-.041-.052-.04-.103-.08-.165-.105-.058-.024-.12-.029-.18-.037-.03-.003-.056-.017-.087-.017H3.545C1.591.426 0 1.996 0 3.924v42.253c0 1.929 1.59 3.498 3.545 3.498h31.437c1.955 0 3.545-1.57 3.545-3.498V13.919v-.003a.67.67 0 0 0-.05-.25" mask="url(#j)"/>
            </g>
            <path fill="#FEFEFE" d="M57.127 122.37c.796.14 1.033.178 1.778.512.745.333.685.734.536.792-.148.06-.539.04-.785-.004-.795-.14-1.715-.672-2.99-1.499.536.055 1.025.121 1.46.198m-11.539-1.012c.399-.483.815-.994 1.244-1.537a32.837 32.837 0 0 0 2.285-3.274c.503 1.453 1.222 2.74 2.142 3.83.115.137.238.275.368.415-2.27.04-4.257.227-6.039.566m5.01-13.444c.436.077.493 1.206.334 2.228-.158 1.021-.526 1.692-.918 2.168-.11-.826-.012-2.08.13-2.886 0 0 .253-1.545.454-1.51m-12.02 17.985c.366-.623 1.578-1.77 3.234-2.687.103-.057.365-.225.604-.382-1.936 2.119-3.117 2.89-3.837 3.07m13.812-6.481c-1.036-1.358-1.79-3.122-2.126-4.976.07-.155.131-.29.19-.432 0 0 1.386-3.782 1.434-5.135.007-.186 0-.24-.024-.39l-.033-.164c-.114-.465-.405-.988-.992-1.065l-.34-.072-.01-.001c-.65-.115-1.236.12-1.462.585-.694 1.463-.663 3.84-.398 6.957l-.288.45c-.805 1.26-1.756 2.506-2.595 3.605l-.109.142a67.716 67.716 0 0 1-2.372 2.948l-.61.193c-.044.013-1.09.344-1.34.439-2.103.786-3.59 1.838-3.979 2.813-.123.31-.147.733.159.983l.494.365c.213.157.45.259.704.303 1.357.24 3.227-1.15 6.057-4.506 2.649-.363 5.621-.53 8.187-.457 1.72 1.395 3.935 2.544 5.414 2.804.263.047.493.063.686.046.297-.024.564-.141.748-.332.362-.376.524-.953.552-1.568.009-.182-.097-.428-.227-.606-.364-.505-1.297-.902-2.775-1.183-1.001-.187-2.224-.313-3.524-.361-.512-.424-1.035-.88-1.42-1.385"/>
            <path fill="#FFF" d="M29.687 120.663l-1.263-7.975 11.554 8.097-8.48 1.367c-.522.083-.918.011-1.212-.216-.524-.408-.591-1.21-.599-1.273m12.575.182l-.005-.014c-.016-.026-.043-.043-.062-.067-.036-.042-.068-.088-.115-.122h-.002l-.002-.003-14.168-9.929c-.02-.014-.044-.017-.066-.029-.053-.03-.107-.06-.168-.073-.057-.014-.114-.01-.172-.007-.028 0-.055-.008-.084-.004L7.892 113.69c-1.814.287-3.06 1.978-2.777 3.768l6.212 39.22c.283 1.791 1.991 3.014 3.805 2.727l29.18-4.622c1.815-.288 3.06-1.978 2.777-3.769l-4.742-29.943-.001-.002a.63.63 0 0 0-.084-.224"/>
            <g fill="#1771DD">
                <path d="M24.401 139.759a2.275 2.275 0 0 0-1.264-.137 2.23 2.23 0 0 0-.872.324c-.256.166-.465.38-.626.643a2.553 2.553 0 0 0-.33.963c-.058.379-.051.793.02 1.242.071.453.194.852.366 1.2.173.348.383.626.631.833.248.209.517.35.808.427.29.077.599.09.924.038.416-.066.78-.23 1.097-.492.315-.262.541-.624.68-1.088.137-.464.156-1.01.056-1.641-.092-.584-.266-1.074-.524-1.47-.257-.398-.58-.679-.966-.842M15.337 141.155c-.367-.05-.799-.037-1.295.041l-1.073.17.857 5.407 1.231-.195c.27-.043.48-.084.631-.122.151-.04.304-.101.459-.185.155-.084.284-.187.388-.312.471-.542.618-1.37.442-2.487-.125-.786-.337-1.356-.638-1.71-.301-.353-.635-.556-1.002-.607"/>
                <path d="M29.44 126.377c-.555.088-.976.011-1.288-.233-.56-.437-.632-1.295-.64-1.362l-1.353-8.542 12.305 8.683-9.023 1.454zm6.5 16.473a3.066 3.066 0 0 1-1.38 1.82c-.392.244-.866.41-1.425.498a5.236 5.236 0 0 1-1.173.064 3.276 3.276 0 0 1-1.003-.223 3.202 3.202 0 0 1-.885-.542 3.98 3.98 0 0 1-.675-.754 4.38 4.38 0 0 1-.493-.938 5.378 5.378 0 0 1-.29-1.102c-.1-.641-.099-1.23.01-1.767a3.696 3.696 0 0 1 .6-1.43 3.56 3.56 0 0 1 1.1-1.018c.442-.262.928-.436 1.46-.52.65-.104 1.248-.066 1.796.11.548.178.987.434 1.317.77.33.335.521.671.575 1.009a.707.707 0 0 1-.12.52.635.635 0 0 1-.442.287c-.208.033-.372.009-.491-.072-.12-.082-.263-.232-.428-.45-.275-.362-.57-.618-.887-.768-.317-.15-.686-.192-1.105-.126-.668.106-1.16.442-1.475 1.008-.317.566-.401 1.313-.254 2.24.098.62.267 1.121.507 1.505.24.383.537.651.89.803.354.153.745.194 1.176.126.466-.074.843-.252 1.13-.533.286-.281.476-.657.57-1.129.035-.221.094-.406.176-.554.08-.15.234-.241.46-.277.193-.03.37.01.53.123.16.111.255.267.287.466.04.254.021.538-.058.854zm-8.385.69a3.687 3.687 0 0 1-.548 1.429 3.352 3.352 0 0 1-1.102 1.044c-.458.273-1.003.46-1.633.56-.629.099-1.206.087-1.734-.036a3.38 3.38 0 0 1-1.376-.653 3.67 3.67 0 0 1-.962-1.202 5.364 5.364 0 0 1-.518-1.627 5.193 5.193 0 0 1-.002-1.727c.095-.539.284-1.014.562-1.426.279-.412.645-.75 1.095-1.017.452-.267.984-.449 1.597-.546.831-.131 1.572-.077 2.221.164.65.24 1.177.646 1.581 1.214.405.57.672 1.27.804 2.104.098.616.102 1.19.015 1.719zm-8.848 1.011a3.906 3.906 0 0 1-.22 1.13 3.348 3.348 0 0 1-.538.957 2.81 2.81 0 0 1-.632.573 3.24 3.24 0 0 1-.785.375c-.287.094-.614.17-.982.228l-2.118.335c-.295.047-.525.039-.688-.027a.628.628 0 0 1-.352-.328 2.397 2.397 0 0 1-.168-.617l-.925-5.842c-.055-.348-.017-.612.116-.793.131-.18.373-.298.723-.354l2.118-.335c.55-.087 1.03-.11 1.44-.072.41.039.798.172 1.164.4.947.578 1.536 1.592 1.766 3.041.075.478.102.921.081 1.329zm22.277-19.322a.682.682 0 0 0-.089-.24c-.003-.004-.002-.01-.006-.015-.017-.028-.045-.046-.066-.071-.038-.045-.072-.095-.122-.13 0-.001-.002 0-.003-.002l-.002-.003-15.088-10.647c-.021-.015-.047-.018-.07-.031-.057-.031-.114-.064-.179-.079-.061-.014-.122-.01-.183-.007-.03 0-.059-.009-.09-.004L4.31 117.29c-1.932.307-3.255 2.116-2.951 4.033l6.653 42.005c.303 1.918 2.12 3.229 4.052 2.923l31.05-4.918c1.93-.305 3.254-2.114 2.95-4.032l-5.079-32.069-.001-.003z"/>
            </g>
            <path fill="#0D6192" d="M190 72h70v109.362h-70z"/>
            <g>
                <path fill="#EBEBEB" d="M218.09 88.82a8.089 8.089 0 0 0 1.903-3.158c1.39-4.28-.967-8.882-5.268-10.28-4.3-1.396-8.913.94-10.304 5.22-1.01 3.107-.042 6.383 2.207 8.48 0 0 3.586 3.643 11.908 4.317 0 0-2.728-1.584-.447-4.58"/>
                <path fill="#29B6E4" d="M217.822 88.002h-.001a8.09 8.09 0 0 0 1.906-3.157c1.39-4.28-.968-8.882-5.27-10.28-4.3-1.397-8.914.94-10.305 5.22-1.009 3.107-.042 6.384 2.209 8.482l-.002-.001s3.586 3.643 11.908 4.314c0 0-2.726-1.582-.445-4.578"/>
            </g>
            <g>
                <path fill="#EBEBEB" d="M223.944 77.906a14.384 14.384 0 0 1-3.386-5.613c-2.473-7.611 1.72-15.795 9.368-18.28 7.646-2.485 15.85 1.671 18.324 9.282 1.794 5.523.075 11.35-3.924 15.08 0 0-6.378 6.477-21.176 7.675 0 0 4.851-2.817.794-8.144"/>
                <path fill="#FFCE05" d="M224.419 76.453l.003-.001a14.386 14.386 0 0 1-3.39-5.612c-2.472-7.611 1.721-15.796 9.372-18.281 7.645-2.485 15.85 1.671 18.323 9.282 1.795 5.525.076 11.352-3.927 15.082h.004s-6.378 6.477-21.177 7.671c0 0 4.85-2.813.792-8.141"/>
            </g>
            <g>
                <path fill="#8F5C3D" d="M227.124 101.35s-1.484.83-1.363 3.612c0 0-1.118 1.97-1.104 2.718.015.748.306 1.297.306 1.297s-.21 1.964-.17 2.233c.039.27-.8 5.083-1.957 5.77-1.157.686-2.128.865-2.818.794-.69-.071-.247 2.675 1.395 2.92 1.642.247 11.437-.254 12.63 1.41 1.195 1.664 1.126 2.247 1.126 2.247l3.455-3.066-.613-2.568s1.066-16.26-10.887-17.367"/>
                <g transform="rotate(3 -1732.793 4379.207)">
                    <mask id="l" fill="#fff">
                        <use xlink:href="#k"/>
                    </mask>
                    <path fill="#2A1813" d="M.553 4.639s1.226 1.066 2.292 1.066c0 0 .48.053 1.812 2.292 0 0 .885 3.56 1.029 6.311l3.304 1.677s2.33.115 2.704 2.14c0 0 0 1.973-.48 2.986 0 0 3.838 1.439 5.384-1.973 0 0 2.985-1.173 2.505-6.503 0 0 1.173-7.73-4.904-8.742 0 0-2.878-.374-3.571-1.493 0 0-1.493-3.838-7.144-1.706 0 0-3.944 1.226-2.931 3.945" mask="url(#l)"/>
                </g>
                <path fill="#2A1813" d="M233.87 121.348s-.649 6.264-3.461 7.985c0 0-4.84 3.75-7.677-1.203l-1.046-4.485 2.336-1.8.022-.425-2.692.446.061-1.171 7.584-1.097s1.5-.082 1.605-2.105c.106-2.023.697-4.127.78-4.71.085-.583.474-1.897.474-1.897l3.217 1.77s-1.21 4.741-1.095 5.601l-.108 3.09z"/>
                <path fill="#2A1813" d="M228.545 102.32s.872.372 1.477 1.104c0 0 .718 1.553 1.054 2.653.336 1.1.472 4.55.427 5.432a3.49 3.49 0 0 0 .342 1.619l1.651-.946-.308-4.301-2.539-5.883-2.104.322zM225.192 104.95s2.712 1.21 3.3 3.59c0 0-3.288-1.098-4.424-1.158 0 0 .698-2.654 1.124-2.432"/>
                <path fill="#FFF" d="M235.17 124.351l.579 1.702 4.062-1.974-1.187-2.794z"/>
                <path stroke="#2A1D12" stroke-linecap="round" stroke-linejoin="round" d="M223.94 109.83s-1.583 5.754.952 6.955c0 0 2.03.64 2.839-1.88l.947-3.999"/>
                <path fill="#FABF23" d="M234.347 113.259l-4.293-2.627-6.27-1.557-.039.746 6.049 1.705z"/>
                <path fill="#2A1813" d="M226.718 112.888a.563.563 0 1 1-1.124-.059.563.563 0 0 1 1.124.06"/>
                <g transform="rotate(3 -2223.703 4455.984)">
                    <mask id="n" fill="#fff">
                        <use xlink:href="#m"/>
                    </mask>
                    <path fill="#3BB4BC" d="M23.275 12.675S18.646 1.417 10.527.37L5.765 3S1.91 7.784.672 16.095c0 0-2.35 10.581 4.008 17.331.748.795 1.376 1.386 1.91 1.823 3.138 5.134 7.237 9.402 11.808 8.058 10.235-3.01 10.056-22.47 4.877-30.632" mask="url(#n)"/>
                </g>
                <g transform="rotate(3 -3016.32 4541.156)">
                    <mask id="p" fill="#fff">
                        <use xlink:href="#o"/>
                    </mask>
                    <path fill="#229699" d="M8.872.837S6.919 8.037.306 3.761c0 0 5.548-5.02 8.566-2.924" mask="url(#p)"/>
                </g>
                <path fill="#229699" d="M236.41 129.915s6.164-.868 6.527 7.166c.363 8.034 1.079 29.646-1.552 29.61-2.63-.035-9.554 5.378-8.957-3.57.597-8.947 3.982-33.206 3.982-33.206"/>
            </g>
            <path fill="#8F5C3D" d="M234 168v6.807c1.641 2.847 3.66 2.847 6.055 0 2.396-2.848 2.396-5.117 0-6.807H234z"/>
            <g>
                <path fill="#D28B4A" d="M204.143 104.107s6.44.06 8.055.532l1.616.471s.983 1.577.806 5.466c0 0-.368 3.084-.351 3.644.018.56-.017 2.19 0 3.136.018.946.193 2.733 0 2.68-.193-.052-7.326 3.55-12.754-3.416 0 0 .424-12.56 2.628-12.513"/>
                <path fill="#5E361B" d="M197.626 104.129s13.875-.35 16.187.98c0 0 4.275-1.75 3.434-4.274 0 0-1.331-4.064-2.593-4.835 0 0-1.471 1.822-6.026 1.402 0 0-2.803-1.682-4.976-.491 0 0-5.185 2.102-6.026 7.218"/>
                <path fill="#BF6D32" d="M197.626 103.849s-3.014 4.695-.841 7.287l3.503.351-.35 4.695h1.962s1.403-11.045 2.243-12.075l-6.517-.258z"/>
                <path fill="#5E361B" d="M201.9 116.182s1.402 1.962 3.154 2.453c1.752.49 2.172-.841 3.714.56 1.541 1.402 1.892 1.192 3.083 1.192 1.191 0 2.523-1.262 2.733-.49.21.77-.56 3.293-.56 3.293v2.242s-2.453 6.588-5.116 6.938c-2.663.35-5.536.63-7.008-3.924 0 0-2.733-8.76-1.962-12.264h1.962z"/>
                <path fill="#2A1D12" d="M208.963 113.484a.736.736 0 1 1-1.472 0 .736.736 0 0 1 1.472 0M214.269 113.695a.736.736 0 1 1-1.472-.001.736.736 0 0 1 1.472 0"/>
                <path fill="#D28B4A" d="M200.337 122.227v7.322l2.107.245s-1.875-6.267-2.107-7.567M200.07 114.22l.218-2.733s-.63-2.733-2.978-.736c0 0-2.137 2.172.316 4.976 0 0 2.506 4.275 2.444-1.507"/>
                <path fill="#BF6D32" d="M212.132 118.915a.77.77 0 0 1-1.542 0v-4.66a.771.771 0 1 1 1.542 0v4.66z"/>
                <path fill="#D28B4A" d="M207.491 121.613s3.618 1.494 5.306.614"/>
                <path fill="#FFF" d="M207.613 132.513s.945 1.11 1.129 1.819c.183.71.499-1.157.499-1.157v-.883l-1.628.221z"/>
                <path fill="#BDB330" d="M199.497 132.545l6.643 2.943 2.287-1.843.315.687.499-1.157s1.139.21 2.12 2.313c.98 2.102 3.574 14.61 2.908 18.71-.666 4.1-8.698 13.876-17.822-2.207 0 0 4.963-12.193-1.554-16.608 0 0 3.543-3.308 4.604-2.838"/>
                <path fill="#91861D" d="M194.893 135.383s-8.83 7.989-10.512 20.392c-1.682 12.404 2.628 11.247 4.625 11.037 1.997-.21 3.259-.42 3.574-3.889.316-3.469 3.868-10.932 3.868-10.932s4.962-12.93-1.555-16.608"/>
                <path fill="#FFF" d="M199.8 129.55s1.84-1.077 4.537 2.405l-1.088 2.377-4.414-2.103s.43-2.68.966-2.68"/>
                <path fill="#DDE4D5" d="M204.337 131.954s1.75 1.011 1.75 1.72v.819l-2.53-.834.78-1.705z"/>
                <path fill="#DDE4D5" d="M207.613 132.513s-1.604.097-1.526 1.043c.022.262 0 .999 0 .999l2.069-1.332-.543-.71z"/>
                <path fill="#91861D" d="M203.557 133.66l2.528.833 2.03-1.321.312.473-2.287 1.843-2.843-1.26z"/>
                <path fill="#BDB330" d="M196.447 151.991s-.327 22.284 5.997 22.915c6.324.63 13.342 2.523 11.933-22.329-.93-16.397-17.93-.586-17.93-.586"/>
                <path fill="#91861D" d="M209.24 133.176s6.255-.631 10.355 14.505c0 0 2.838 9.563 2.733 12.403-.105 2.839-1.804 0-5.571 0-3.96 0-.42-16.082-7.516-26.908"/>
                <path fill="#D28B4A" d="M217.412 160.113s-.685 5.252.64 7.314c1.387 2.153 2.419.927 3.05.261.681-.72.63-4.276.314-5.852-.315-1.576-2.104-1.734-4.004-1.723M190.657 166.516c.704 2.121.977 6.708-1.545 7.234-2.523.525-2.628-6.814-2.628-6.814v-.155s2.617.214 4.173-.265"/>
                <path fill="#D28B4A" d="M191.044 168.284s.695 2.358 1.01 1.862c.316-.496-.91-3.63-.91-3.63l-.1-.173-.707.259"/>
                <path fill="#D28B4A" d="M191.222 166.239s.487 1.52.752 2.807-1.26-1.209-1.26-1.209l-.184-.788s.122-.622.692-.81M217.009 160.084s-1.686 5.3-.866 5.36c.82.062 1.077-2.204 1.358-2.272.282-.068 1.557 1.35 1.557 1.35l.501.925-1.7-5.312-.526-.051"/>
            </g>
            <g transform="translate(76 281.031)">
                <use stroke="#0A4568" stroke-width="2" xlink:href="#q"/>
            </g>
            <g transform="translate(183 281.031)">
                <use stroke="#0A4568" stroke-width="2" xlink:href="#r"/>
            </g>
            <circle cx="132.458" cy="281.458" r="2.458" stroke="#0B4568" stroke-width="2"/>
            <circle cx="228.458" cy="251.458" r="2.458" stroke="#0B4568" stroke-width="2"/>
            <circle cx="38.458" cy="253.458" r="2.458" stroke="#0B4568" stroke-width="2"/>
        </g>
    </g>
</svg>
