<svg xmlns="http://www.w3.org/2000/svg" xmlns:xlink="http://www.w3.org/1999/xlink" width="233" height="270" viewBox="0 0 233 270">
    <defs>
        <circle id="a" cx="30" cy="30" r="30"/>
        <path id="c" d="M0 171.083h54.766V0H0z"/>
        <path id="e" d="M0 73.117V.137h72.98v72.98z"/>
        <path id="f" d="M9.39 32.268V.085H.085v32.183z"/>
        <circle id="h" cx="4.916" cy="4.916" r="4.916"/>
        <circle id="i" cx="4.916" cy="4.916" r="4.916"/>
        <path id="j" d="M0 .327h46.323v37.81H0z"/>
    </defs>
    <g fill="none" fill-rule="evenodd">
        <path fill="#0D6192" d="M-251-117h734a8 8 0 0 1 8 8v512h-750v-512a8 8 0 0 1 8-8z"/>
        <g transform="translate(-27)">
            <circle cx="143.669" cy="104.276" r="87.863" stroke="#FFCE05" stroke-dasharray="2,16" stroke-linecap="round" stroke-linejoin="round" stroke-width="2"/>
            <g transform="translate(112.87 71.87)">
                <mask id="b" fill="#fff">
                    <use xlink:href="#a"/>
                </mask>
                <use fill="#F7EEC8" xlink:href="#a"/>
                <g mask="url(#b)">
                    <g transform="translate(3.412 5.718)">
                        <path fill="#E09B7E" d="M16.778 21.44c.233 1.572-.624 3.01-1.915 3.213-1.29.202-2.526-.908-2.76-2.481l-.293-1.971c-.234-1.573.623-3.011 1.914-3.213 1.291-.203 2.527.908 2.761 2.48l.293 1.971zM37.635 21.253c-.235 1.572.623 3.01 1.914 3.213 1.29.202 2.526-.909 2.76-2.481l.293-1.97c.234-1.574-.624-3.012-1.914-3.215-1.292-.202-2.527.91-2.76 2.482l-.293 1.97zM14.96 42.71s-13.554.215-13.213 47.848l4.508-.14c.482-5.591 5.712-35.884 11.185-37.672L14.96 42.71z"/>
                        <path fill="#E09B7E" d="M8.574 100.509c-.12-2.452-1.87-9.614-2.728-10.651l-4.09.28c0 2.738-1.08 4.895.105 7.528.956 2.124 2.45 3.916 3.955 5.644 2.214 2.541 2.863-.652 2.758-2.801M40.055 43.13s12.882-.205 12.541 47.428l-4.51-.14c-.48-5.591-5.164-35.324-10.637-37.112l2.606-10.177z"/>
                        <path fill="#E09B7E" d="M45.77 100.509c.12-2.452 1.868-9.614 2.726-10.651l4.092.28c0 2.738 1.079 4.895-.106 7.528-.956 2.124-2.45 3.916-3.955 5.644-2.214 2.541-2.863-.652-2.758-2.801"/>
                        <path fill="#059183" d="M7.715 80.879c2.016-10.976 5.808-26.854 9.725-28.133L14.96 42.71s-11.382.188-13.022 36.88c1.93.415 3.863.81 5.777 1.289"/>
                        <path fill="#21B79E" d="M46.799 81.361a290.852 290.852 0 0 1 5.61-1.942c-1.572-36.452-12.354-36.29-12.354-36.29L37.45 53.306c3.962 1.295 7.51 17.232 9.35 28.055"/>
                        <mask id="d" fill="#fff">
                            <use xlink:href="#c"/>
                        </mask>
                        <path fill="#E09B7E" d="M22.548 41.777h4.623V30.479h-4.623z" mask="url(#d)"/>
                        <path fill="#EDB6A4" d="M27.171 41.777h4.623V30.479H27.17z" mask="url(#d)"/>
                        <path fill="#EAAF92" d="M27.146 8.072l-13.348 3.921s-2.233 24.663 13.348 24.83V8.072z" mask="url(#d)"/>
                        <path fill="#F4C3AE" d="M27.145 6.96l13.4 5.593s2.233 24.103-13.4 24.28V6.96z" mask="url(#d)"/>
                        <path fill="#00A99D" d="M22.57 41.03c-.047.002-.09.002-.139.005-4.12.225-9.682 1.21-12.014 4.476-2.742 3.839 4.512 33.237 3.536 44.67-.5 5.87 7.687 8.233 13.195 8.35V41.1a12.124 12.124 0 0 0-.848-.072h-3.73z" mask="url(#d)"/>
                        <path fill="#2DD3BB" d="M43.925 45.51c-2.356-3.299-8.008-4.27-12.141-4.481h-3.752c-.368.022-.657.048-.836.073V98.53c5.506-.116 13.837-2.494 13.194-8.348-1.093-9.94 6.277-40.832 3.535-44.671" mask="url(#d)"/>
                        <path fill="#603813" d="M25.707 98.26L14 85.689s-4.661 17.054 5.705 79.234h3.818l2.183-66.661z" mask="url(#d)"/>
                        <path fill="#754C24" d="M28.636 98.26l11.705-12.572s4.662 17.054-5.704 79.234h-3.819L28.636 98.26z" mask="url(#d)"/>
                        <path fill="#42210B" d="M23.525 164.922h-3.82s-9.868 3.92-8.777 6.162h12.82l-.223-6.162z" mask="url(#d)"/>
                        <path fill="#603813" d="M30.858 164.922h3.818s9.87 3.92 8.778 6.162h-12.82l.224-6.162z" mask="url(#d)"/>
                        <path fill="#564205" d="M14.76 16.376c.724-10.02 7.75-3.167 12.876-3.103 4.995.063 10.954-7.046 12.07 3.232.64 5.9.549 5.385.549 5.385S46.139-.004 27.308 0C6.993.005 14.326 23.464 14.326 23.464s-.062-.243.433-7.088z" mask="url(#d)"/>
                        <path fill="#1A1A1A" d="M21.845 20.64c0 .696-.549 1.26-1.228 1.26-.677 0-1.227-.564-1.227-1.26 0-.697.55-1.261 1.227-1.261.68 0 1.228.564 1.228 1.26M34.953 20.64c0 .696-.55 1.26-1.228 1.26-.678 0-1.227-.564-1.227-1.26 0-.697.549-1.261 1.227-1.261s1.228.564 1.228 1.26" mask="url(#d)"/>
                        <path fill="#D3896E" d="M25.467 19.394v5.495c0 .967.763 1.75 1.705 1.75.94 0 1.704-.783 1.704-1.75v-5.495h-3.409z" mask="url(#d)"/>
                        <path fill="#C62424" d="M22.65 29.498h8.642L29.529 30.8l-2.519.56-2.359-.56z" mask="url(#d)"/>
                        <path fill="#00A99D" d="M8.65 84L0 82.794l.538-4.07 8.65 1.205z" mask="url(#d)"/>
                        <path fill="#2DD3BB" d="M54.765 83.263l-8.494 2.063-.921-3.998 8.494-2.064z" mask="url(#d)"/>
                        <path fill="#059183" d="M22.234 38.602l4.961 2.5-3.688 4.782-7.093-4.295z" mask="url(#d)"/>
                        <path fill="#21B79E" d="M31.924 38.602l-4.962 2.5 3.689 4.782 7.092-4.295z" mask="url(#d)"/>
                        <path fill="#603813" d="M13.898 83.977c.162 2.373.202 4.492.055 6.204-.5 5.87 7.687 8.233 13.194 8.35V83.977h-13.25z" mask="url(#d)"/>
                        <path fill="#754C24" d="M40.441 83.977H27.195V98.53c5.508-.117 13.838-2.494 13.195-8.35-.175-1.594-.132-3.73.051-6.204" mask="url(#d)"/>
                        <path fill="#42210B" d="M13.323 86.03h13.821v-3.734h-13.82z" mask="url(#d)"/>
                        <path fill="#603813" d="M27.144 86.03h13.82v-3.734h-13.82z" mask="url(#d)"/>
                    </g>
                </g>
            </g>
            <path fill="#EAEAEA" d="M27.8 98.198a2.49 2.49 0 0 1 1.315-3.255l31.99-13.579a2.489 2.489 0 0 1 3.254 1.316l17.337 40.844a2.49 2.49 0 0 1-1.314 3.254l-23.278 9.882-15.665-6.33L27.8 98.198z"/>
            <path fill="#BCD0D7" d="M52.2 126.632l14.614 5.906-9.71 4.121-14.616-5.905z"/>
            <g fill="#1CB1E1">
                <path d="M49.217 120.304l20.669-8.773-.97-2.286-20.67 8.774zM51.47 125.61l20.668-8.773-.97-2.285-20.669 8.773zM46.701 114.377l20.669-8.773-.97-2.285-20.669 8.773zM44.185 108.45l20.67-8.773-.97-2.284-20.67 8.773zM41.67 102.524l20.668-8.773-.97-2.285L40.7 100.24zM38.55 102.5a1.392 1.392 0 1 1-2.562 1.088 1.392 1.392 0 0 1 2.563-1.088M41.066 108.426a1.392 1.392 0 1 1-2.563 1.089 1.392 1.392 0 0 1 2.563-1.089M43.582 114.353a1.392 1.392 0 1 1-2.563 1.088 1.392 1.392 0 0 1 2.563-1.088M46.097 120.279a1.392 1.392 0 1 1-2.562 1.089 1.392 1.392 0 0 1 2.562-1.09M48.357 124.739a1.392 1.392 0 1 1-2.562 1.089 1.392 1.392 0 0 1 2.562-1.09"/>
            </g>
            <path fill="#FFF" d="M57.104 136.66l-3.698-8.712a2.49 2.49 0 0 0-3.255-1.315l-8.711 3.698 15.664 6.328z"/>
            <path fill="#28BCBC" d="M39.201 85.52a4.5 4.5 0 0 1 8.234-3.496l5.633-2.39a2 2 0 0 1 2.622 1.059l1.954 4.602a2 2 0 0 1-1.06 2.623L37.17 96.159a2 2 0 0 1-2.623-1.06l-1.953-4.602a2 2 0 0 1 1.06-2.622l5.547-2.356zm5.276.982a2.466 2.466 0 1 0-1.927-4.54 2.466 2.466 0 0 0 1.927 4.54z"/>
            <path fill="#FFCE05" d="M156.439 31.585a.683.683 0 0 1-.683.683h-28.684a.683.683 0 0 1-.683-.683V.683c0-.377.306-.683.683-.683h28.684c.377 0 .683.306.683.683v30.902z"/>
            <path fill="#FFF" d="M124 6.573a.683.683 0 0 1-.683.683h-3.33a.683.683 0 0 1-.682-.683V3.33c0-.377.306-.683.683-.683h3.33c.376 0 .682.306.682.683v3.244zM124 14a.683.683 0 0 1-.683.683h-3.33a.683.683 0 0 1-.682-.683v-3.244c0-.377.306-.683.683-.683h3.33c.376 0 .682.306.682.683V14zm0 7.518a.683.683 0 0 1-.683.683h-3.33a.683.683 0 0 1-.682-.683v-3.244c0-.377.306-.683.683-.683h3.33c.376 0 .682.306.682.683v3.244zm0 7.348a.683.683 0 0 1-.683.683h-3.33a.683.683 0 0 1-.682-.683v-3.244c0-.377.306-.683.683-.683h3.33c.376 0 .682.306.682.683v3.244zM125.622 0h-7.939a.683.683 0 0 0-.683.683V31.5c0 .377.306.683.683.683h7.94a.683.683 0 0 0 .682-.683V.683a.683.683 0 0 0-.683-.683z"/>
            <g transform="translate(156.354)">
                <mask id="g" fill="#fff">
                    <use xlink:href="#f"/>
                </mask>
                <path fill="#FFF" d="M7.085 6.658a.683.683 0 0 1-.683.683h-3.33a.683.683 0 0 1-.682-.683V3.414c0-.377.306-.683.683-.683h3.33c.376 0 .682.306.682.683v3.244zm0 7.427a.683.683 0 0 1-.683.683h-3.33a.683.683 0 0 1-.682-.683v-3.244c0-.377.306-.683.683-.683h3.33c.376 0 .682.306.682.683v3.244zm0 7.518a.683.683 0 0 1-.683.683h-3.33a.683.683 0 0 1-.682-.683V18.36c0-.377.306-.683.683-.683h3.33c.376 0 .682.306.682.683v3.244zm0 7.348a.683.683 0 0 1-.683.683h-3.33a.683.683 0 0 1-.682-.683v-3.244c0-.378.306-.683.683-.683h3.33c.376 0 .682.305.682.683v3.244zM8.707.085H.768a.683.683 0 0 0-.683.683v30.817c0 .377.306.683.683.683h7.94a.683.683 0 0 0 .682-.683V.768a.683.683 0 0 0-.683-.683z" mask="url(#g)"/>
            </g>
            <path fill="#FF564D" d="M150.89 16.134a9.476 9.476 0 1 1-18.952 0 9.476 9.476 0 0 1 18.952 0"/>
            <path fill="#FFF" d="M144.8 15.712l-4.38-4.38a.538.538 0 0 0-.917.38v8.76a.538.538 0 0 0 .918.381l4.38-4.38a.541.541 0 0 0 0-.76"/>
            <g transform="translate(116 165)">
                <circle cx="27.5" cy="30.139" r="21.5" fill="#29B6E4"/>
                <circle cx="15.5" cy="15.5" r="8.5" fill="#29B6E4"/>
                <circle cx="39.5" cy="15.5" r="8.5" fill="#29B6E4"/>
                <circle cx="27.5" cy="30.139" r="17.219" fill="#FFF"/>
                <rect width="2" height="8" x="12" y="45" fill="#29B6E4" rx="1" transform="rotate(22 13 49)"/>
                <rect width="2" height="8" x="41.426" y="44.083" fill="#29B6E4" rx="1" transform="rotate(-28 42.426 48.083)"/>
                <circle cx="28" cy="30" r="2" fill="#FF564D"/>
                <rect width="2" height="5" x="27" y="15" fill="#0D6192" rx="1"/>
                <rect width="2" height="5" x="39.5" y="27.639" fill="#0D6192" rx="1" transform="rotate(90 40.5 30.139)"/>
                <rect width="2" height="5" x="13.5" y="27.639" fill="#0D6192" rx="1" transform="rotate(90 14.5 30.139)"/>
                <rect width="2" height="5" x="27" y="40" fill="#0D6192" rx="1"/>
                <path stroke="#29B6E4" stroke-linecap="round" stroke-linejoin="round" d="M4.2 8.956C5.48 4.9 8.084 3.117 12.014 3.608M.941 7.83C2.633 2.468 6.077.111 11.273.76M51.015 8.956C49.735 4.9 47.13 3.117 43.2 3.608M53.531 8.175C51.84 2.813 48.395.456 43.2 1.105"/>
            </g>
            <g transform="translate(87 259.031)">
                <use stroke="#0A4568" stroke-width="2" xlink:href="#h"/>
            </g>
            <g transform="translate(194 259.031)">
                <use stroke="#0A4568" stroke-width="2" xlink:href="#i"/>
            </g>
            <circle cx="143.458" cy="259.458" r="2.458" stroke="#0B4568" stroke-width="2"/>
            <circle cx="239.458" cy="229.458" r="2.458" stroke="#0B4568" stroke-width="2"/>
            <circle cx="49.458" cy="231.458" r="2.458" stroke="#0B4568" stroke-width="2"/>
            <g>
                <g transform="rotate(34 -10.696 398.921)">
                    <mask id="k" fill="#fff">
                        <use xlink:href="#j"/>
                    </mask>
                    <path fill="#F0F0F0" d="M7.815 38.092l33.78-6.738 1.037-1.923-35.859 7.151L1.508 9.613 40.886 1.76l4.43 22.687 1.007-1.871-3.964-20.314C42.104.963 40.856.116 39.57.372L1.918 7.881C.628 8.138-.207 9.4.044 10.7l4.98 25.501a2.377 2.377 0 0 0 2.79 1.89" mask="url(#k)"/>
                </g>
                <path fill="#0D6192" d="M254.157 98.505l-37.038-15.51-10.715 25.301 33.728 14.124 5.01-2.63z"/>
                <path fill="#D5DFE0" d="M241.688 117.705l3.405 1.425 1.932-.329.126-.297-3.813-1.988c-1.245-.521-2.686.076-3.217 1.33l-2.06 5.532.136.058 1.74-1.597 1.751-4.134z"/>
                <path fill="#FAFAFA" d="M241.78 118.43l3.31 1.386 1.935-1.015-3.64-1.522c-1.212-.508-2.61.069-3.128 1.289l-2.059 4.867 1.882-.989 1.7-4.015z"/>
                <path fill="#F3F4F7" d="M240.08 122.446l5.01-2.629-3.31-1.386z"/>
                <path fill="#0D6192" d="M213.891 90.617l4.526 6.799 7.929-1.565 3.785 7.523 4.42-.793 3.395 11.922 12.321-6.822 3.89-9.177-37.038-15.51z"/>
                <path fill="#EFC94C" d="M226.646 110.217c.765-1.804-.067-3.873-1.856-4.623-1.79-.749-3.86.105-4.624 1.91-.765 1.804.065 3.874 1.856 4.624 1.79.747 3.86-.106 4.624-1.911"/>
                <path fill="#95AB5E" d="M237.946 114.504l-3.395-11.922-4.419.791 5.967-3.153z"/>
                <path fill="#FFF" d="M217.9 103.542c-.133.18-.252.378-.342.595-.6 1.415-.006 3.014 1.33 3.573 1.062.443 2.271.09 3.021-.785.205.52.598.954 1.139 1.18 1.104.462 2.404-.112 2.9-1.289.05-.11.084-.228.114-.344.782.046 1.556-.427 1.895-1.227.424-1 .003-2.13-.937-2.523-.927-.39-5.958-2.496-6.997-2.93-1.044-.438-2.266.105-2.733 1.21-.4.938-.121 1.98.61 2.54"/>
                <path fill="#EBF2FF" d="M218.102 103.265c.068.054.111.131.12.22a.367.367 0 0 1-.066.255 2.512 2.512 0 0 0-.384 2.271c.318-.757 1.19-2.06 3.321-1.502 0 0 3.26-2.978 6.687-.26-.066-.527-.388-1.001-.893-1.213l-6.998-2.931c-.877-.367-1.91.092-2.302 1.022-.33.775-.12 1.653.515 2.138"/>
                <path fill="#FFF" d="M227.966 104.398l-.185-.149c.007.064.013.123.012.184l.173-.035zM217.773 106.011c-.118.287-.16.496-.16.496l.346-.071a2.426 2.426 0 0 1-.186-.425"/>
                <path fill="#FFF" d="M258.09 99.692l-28.457-19.389-2.091.612 30.206 20.581-15.479 22.718-33.166-22.599 13.018-19.116-2.036.598-11.658 17.112c-.746 1.095-.47 2.583.61 3.319l31.717 21.61c1.086.74 2.566.45 3.314-.645l14.633-21.482c.747-1.094.473-2.58-.611-3.319"/>
                <path fill="#1CB2E3" d="M209.103 101.614l33.166 22.6 15.478-22.717-30.204-20.582-5.422 1.584z"/>
                <path fill="#D5DFE0" d="M225.09 85.237l-3.052-2.08-1.955-.061-.182.27 3.34 2.709c1.116.76 2.64.463 3.409-.666l3.107-5.024-.123-.083-2.014 1.223-2.53 3.712z"/>
                <path fill="#FAFAFA" d="M225.142 84.506l-2.963-2.02-2.096.61 3.261 2.223a2.388 2.388 0 0 0 3.313-.644l2.977-4.372-2.035.595-2.457 3.608z"/>
                <path fill="#F3F4F7" d="M227.598 80.898l-5.419 1.59 2.963 2.018z"/>
                <path fill="#EBEBEB" d="M246.934 117.37l-3.087-7.578-8.064-.041-2.218-8.142-4.48-.098-.968-12.386-13.4 4.248-5.615 8.242 33.168 22.598z"/>
                <path fill="#FFCE05" d="M238.326 95.583c-1.103 1.62-.7 3.819.903 4.91 1.602 1.093 3.797.665 4.9-.955 1.104-1.618.7-3.817-.903-4.909-1.602-1.093-3.796-.665-4.9.954"/>
                <path fill="#0D6192" d="M228.118 89.125l.968 12.386 4.48.098-6.461 1.912z"/>
                <path fill="#FFF" d="M245.563 103.88c.166-.152.32-.324.453-.516.864-1.273.598-2.96-.595-3.773-.952-.65-2.207-.544-3.113.168a2.088 2.088 0 0 0-.878-1.383c-.991-.677-2.375-.37-3.091.684a2.017 2.017 0 0 0-.18.317c-.757-.2-1.609.108-2.099.829-.612.897-.423 2.09.42 2.666.83.565 5.337 3.635 6.267 4.27.934.635 2.237.346 2.913-.647.575-.842.507-1.921-.097-2.615"/>
                <path fill="#EBF2FF" d="M245.311 104.111a.33.33 0 0 1-.075-.24.358.358 0 0 1 .116-.237c.154-.142.287-.294.397-.452.355-.527.49-1.133.425-1.702-.46.681-1.569 1.787-3.545.815 0 0-3.777 2.275-6.59-1.078-.042.534.18 1.063.634 1.372l6.267 4.268c.784.534 1.887.293 2.454-.542.473-.699.438-1.603-.083-2.204"/>
                <path fill="#FFF" d="M235.887 101.036c.05.063.1.12.151.181a1.71 1.71 0 0 1 .023-.181h-.174zM246.174 101.48c.174-.259.255-.455.255-.455l-.352.001c.048.147.08.3.097.453"/>
            </g>
        </g>
    </g>
</svg>
