<svg xmlns="http://www.w3.org/2000/svg" xmlns:xlink="http://www.w3.org/1999/xlink" width="282" height="282" viewBox="0 0 282 282">
    <defs>
        <path id="a" d="M0 .224h31.747v25.913H0z"/>
        <path id="c" d="M6.346 21.806V.057H.057v21.75z"/>
        <circle id="e" cx="4.916" cy="4.916" r="4.916"/>
        <circle id="f" cx="4.916" cy="4.916" r="4.916"/>
        <path id="g" d="M14 128.49h36.323V2H14z"/>
        <path id="i" d="M.143 1.39l.15 7.019S6.8 4.615 11.461 9.475c4.518 4.713 8.075 7.701 10.817 1.966-8.08 2.35-6.976-4.364-11.407-8.16C8.616 1.35 5.992.858 3.905.858 1.734.858.143 1.39.143 1.39z"/>
        <path id="k" d="M.442 1.901l.027 7.52s4.896-5.252 10.759-2.053c5.075 2.767 8.466 5.39 9.856-.143-4.685 3.201-7.22-2.25-11.477-5.219A7.644 7.644 0 0 0 5.154.593C2.483.593.442 1.9.442 1.9z"/>
        <path id="m" d="M.057 1.38l.28 45.162c.001.5.335.904.741.905.408 0 .735-.403.731-.9L1.53 1.382C1.528.884 1.194.48.79.478.38.478.053.88.057 1.38z"/>
        <rect id="o" width="1.111" height="3.334" x="54.341" y="20.004" rx=".556"/>
        <path id="p" d="M.159 1.541l.165 7.783s7.217-4.207 12.386 1.183c5.01 5.226 8.954 8.539 11.994 2.18-8.959 2.606-7.735-4.84-12.649-9.049C9.554 1.497 6.645.951 4.33.951c-2.408 0-4.171.59-4.171.59z"/>
        <path id="r" d="M.49 2.108l.03 8.338S5.95 4.623 12.45 8.17c5.628 3.068 9.387 5.977 10.93-.159-5.196 3.55-8.008-2.494-12.728-5.786C8.965 1.047 7.247.657 5.715.657 2.753.657.49 2.108.49 2.108z"/>
        <path id="t" d="M.063 1.53l.31 50.078c.002.555.372 1.002.822 1.005.453 0 .816-.448.811-.999L1.697 1.533C1.694.98 1.324.53.874.53c-.452 0-.815.446-.81 1z"/>
        <path id="v" d="M13.225.043H.305v27.239h12.92V.042z"/>
        <path id="x" d="M13.129.043H.065v27.239H13.13V.042z"/>
        <path id="z" d="M0 128.943h35.855V3H0z"/>
        <path id="B" d="M.143 1.39l.15 7.019S6.8 4.615 11.461 9.475c4.518 4.713 8.075 7.701 10.817 1.966-8.08 2.35-6.976-4.364-11.407-8.16C8.616 1.35 5.992.858 3.905.858 1.734.858.143 1.39.143 1.39z"/>
        <path id="D" d="M.442 1.901l.027 7.52s4.896-5.252 10.759-2.053c5.075 2.767 8.466 5.39 9.856-.143-4.685 3.201-7.22-2.25-11.477-5.219A7.644 7.644 0 0 0 5.154.593C2.483.593.442 1.9.442 1.9z"/>
        <path id="F" d="M.057 1.38l.28 45.162c.001.5.335.904.741.905.408 0 .735-.403.731-.9L1.53 1.382C1.528.884 1.194.48.79.478.38.478.053.88.057 1.38z"/>
        <path id="H" d="M.15 1.46l.157 7.373s6.837-3.986 11.733 1.12c4.746 4.951 8.483 8.09 11.363 2.066-8.487 2.468-7.328-4.585-11.983-8.573C9.05 1.418 6.295.901 4.102.901 1.822.901.15 1.46.15 1.46z"/>
        <path id="J" d="M.464 1.997l.029 7.898S5.635 4.38 11.794 7.74c5.332 2.906 8.893 5.662 10.354-.15-4.922 3.362-7.585-2.364-12.057-5.483C8.493.992 6.865.623 5.414.623 2.608.623.464 1.997.464 1.997z"/>
        <path id="L" d="M.06 1.612l.293 52.733c.002.584.352 1.056.78 1.058.428 0 .772-.472.768-1.051L1.608 1.614C1.605 1.032 1.254.56.828.558.4.558.056 1.028.06 1.612z"/>
    </defs>
    <g fill="none" fill-rule="evenodd">
        <path fill="#0D6192" d="M-220-106h734a8 8 0 0 1 8 8v512h-750V-98a8 8 0 0 1 8-8z"/>
        <g transform="translate(-17 -12)">
            <g transform="rotate(16 69.624 506.47)">
                <path fill="#D8D8D8" d="M9.767 22.181A6.842 6.842 0 0 0 5.41 25.95l25.778 15.456 13.796-27.02a6.835 6.835 0 0 0-5.454-.739L9.767 22.181z"/>
                <path fill="#FFF" d="M21.513 6.76c-.911.272-1.675 1.004-2.344 2.071l-13.32 16.3.012-.003a7.156 7.156 0 0 0-.451.822l23.372 14.01c.432-.816.638-2.196 1.86-2.016.68.098 1.27.526 1.816.966l12.526-24.524a8.43 8.43 0 0 0-.575-.312l.005-.001-20.031-6.825c-1.078-.587-2.004-.725-2.814-.504l-.056.016z"/>
                <path fill="#1CB2E3" d="M5.687 20.762l8.023 27.98 18.735-5.42L49.4 38.509l-8.023-27.98z"/>
                <path fill="#0D6192" d="M20.738 27.93l12.394-3.554-.508-1.773-12.394 3.554zM15.071 33.616l12.394-3.554-.508-1.774-12.395 3.554zM19.203 35.813l12.135-3.479-.509-1.772-12.134 3.48zM23.8 37.77l14.226-4.08-.509-1.774-14.226 4.08zM28.628 29.729l2.74-.786-.508-1.774-2.74.786zM32.735 28.55l5.923-1.697-.509-1.774-5.923 1.698z"/>
                <path fill="#FFF" d="M39.33 26.66l5.923-1.699-.509-1.774-5.922 1.699z"/>
                <path fill="#0D6192" d="M32.69 31.946l7.96-2.283-.508-1.772-7.96 2.283z"/>
                <path fill="#FFCE05" d="M31.188 41.406L5.41 25.95a6.773 6.773 0 0 0-.339 4.664l8.503 29.652c1.037 3.617 4.82 5.706 8.451 4.664l29.763-8.534c3.63-1.041 5.731-4.817 4.694-8.434L47.979 18.31a6.76 6.76 0 0 0-2.995-3.924l-13.796 27.02z"/>
                <path fill="#E6E6E6" d="M6.06 26.338l23.505 11.046-.83 1.862-.686.737zM44.49 15.35L30.674 37.203l1.373.928.977.261z"/>
                <path fill="#FFF" d="M29.828 38.684c.14-.235.261-.337.464-.393.178-.05.346-.053.588.08l25.187 14.428s-11.282-6.93-25.465-15.916c-.876-.564-1.254.209-1.4.548-7.391 15.392-12.714 26.717-12.714 26.717l13.34-25.464z"/>
                <path fill="#FFF" d="M28.84 39.612L5.411 25.951s7.805 5.195 22.997 14.833a6.36 6.36 0 0 0 .315-.936.52.52 0 0 1 .117-.236zM44.984 14.386L32.09 38.706c.374.266.662.599.893.972 8.015-16.716 12-25.292 12-25.292"/>
                <circle cx="47.551" cy="21.088" r="7.786" fill="#FF564D" transform="rotate(-16 47.551 21.088)"/>
                <text fill="#FFF" font-family="Roboto-Bold, Roboto" font-size="10" font-weight="bold" transform="rotate(-16 47.551 21.088)">
                    <tspan x="44.683" y="23.588">2</tspan>
                </text>
            </g>
            <circle cx="160.669" cy="128.276" r="87.863" stroke="#FFCE05" stroke-dasharray="2,16" stroke-linecap="round" stroke-linejoin="round" stroke-width="2"/>
            <path fill="#0D6192" d="M17 94h260v130H17z"/>
            <g transform="rotate(34 11.328 397.16)">
                <mask id="b" fill="#fff">
                    <use xlink:href="#a"/>
                </mask>
                <path fill="#F0F0F0" d="M5.356 26.106l23.152-4.617.71-1.318-24.576 4.9L1.033 6.588l26.988-5.382 3.036 15.549.69-1.283L29.031 1.55A1.63 1.63 0 0 0 27.118.255L1.315 5.401A1.647 1.647 0 0 0 .03 7.333l3.412 17.478a1.63 1.63 0 0 0 1.913 1.295" mask="url(#b)"/>
            </g>
            <path fill="#0D6192" d="M246.581 78.234l-25.383-10.63-7.344 17.341 23.115 9.68 3.434-1.803z"/>
            <path fill="#D5DFE0" d="M238.036 91.393l2.334.976 1.323-.225.086-.203-2.613-1.363a1.692 1.692 0 0 0-2.204.912l-1.412 3.791.093.04 1.193-1.094 1.2-2.834z"/>
            <path fill="#FAFAFA" d="M238.099 91.89l2.269.95 1.325-.696-2.494-1.043a1.644 1.644 0 0 0-2.144.883l-1.411 3.336 1.29-.677 1.165-2.753z"/>
            <path fill="#F3F4F7" d="M236.934 94.643l3.433-1.802-2.268-.95z"/>
            <path fill="#0D6192" d="M218.985 72.829l3.102 4.659 5.434-1.073 2.594 5.156 3.03-.543 2.326 8.17 8.444-4.675 2.666-6.29-25.383-10.629z"/>
            <path fill="#EFC94C" d="M227.727 86.261a2.408 2.408 0 0 0-1.273-3.168c-1.225-.513-2.645.072-3.168 1.309a2.406 2.406 0 0 0 1.272 3.169c1.226.512 2.645-.073 3.17-1.31"/>
            <path fill="#95AB5E" d="M235.471 89.2l-2.327-8.172-3.028.543 4.09-2.161z"/>
            <path fill="#FFF" d="M221.732 81.687c-.09.123-.172.258-.234.407-.41.97-.004 2.066.912 2.449.728.304 1.556.062 2.07-.538.14.356.41.654.78.809.758.316 1.648-.077 1.988-.883.035-.077.058-.157.079-.236.535.031 1.066-.293 1.298-.841.29-.686.002-1.46-.642-1.73l-4.795-2.008c-.716-.3-1.554.073-1.873.83-.275.643-.083 1.357.417 1.74"/>
            <path fill="#EBF2FF" d="M221.871 81.496c.047.038.076.09.083.152a.252.252 0 0 1-.046.174 1.722 1.722 0 0 0-.263 1.557c.218-.519.816-1.412 2.276-1.03 0 0 2.235-2.04 4.583-.178a1.029 1.029 0 0 0-.612-.831l-4.796-2.01c-.601-.25-1.309.064-1.578.701-.226.531-.082 1.133.353 1.465"/>
            <path fill="#FFF" d="M228.631 82.273l-.127-.102c.006.044.01.084.01.126l.117-.024zM221.646 83.379c-.081.196-.11.34-.11.34l.237-.05a1.663 1.663 0 0 1-.127-.29"/>
            <path fill="#FFF" d="M249.277 79.048L229.774 65.76l-1.433.42 20.701 14.105-10.608 15.569-22.73-15.488 8.922-13.101-1.396.41-7.99 11.727c-.51.75-.322 1.77.42 2.275l21.736 14.81a1.635 1.635 0 0 0 2.27-.442l10.03-14.722a1.635 1.635 0 0 0-.42-2.275"/>
            <path fill="#1CB2E3" d="M215.704 80.365l22.73 15.489 10.608-15.569-20.7-14.106-3.716 1.086z"/>
            <path fill="#D5DFE0" d="M226.66 69.141l-2.091-1.426-1.34-.041-.125.185 2.289 1.856c.765.522 1.81.318 2.336-.456l2.13-3.443-.084-.057-1.38.838-1.734 2.544z"/>
            <path fill="#FAFAFA" d="M226.696 68.64l-2.03-1.384-1.437.418 2.235 1.523c.743.506 1.76.308 2.27-.441l2.04-2.996-1.394.407-1.684 2.473z"/>
            <path fill="#F3F4F7" d="M228.38 66.167l-3.714 1.09 2.03 1.383z"/>
            <path fill="#EBEBEB" d="M241.631 91.163l-2.116-5.193-5.526-.028-1.52-5.58-3.07-.068-.664-8.488-9.183 2.911-3.849 5.649 22.732 15.488z"/>
            <path fill="#FFCE05" d="M235.732 76.232c-.756 1.11-.48 2.617.619 3.365 1.097.749 2.602.455 3.358-.655.756-1.108.48-2.616-.619-3.364-1.098-.75-2.602-.456-3.358.654"/>
            <path fill="#0D6192" d="M228.735 71.806l.664 8.488 3.07.068-4.428 1.31z"/>
            <path fill="#FFF" d="M240.692 81.918c.113-.104.219-.222.31-.353.592-.873.41-2.029-.408-2.586-.653-.445-1.512-.373-2.133.115a1.431 1.431 0 0 0-.602-.948c-.68-.464-1.628-.254-2.119.469-.05.07-.088.142-.123.217-.519-.137-1.103.074-1.438.568-.42.615-.29 1.433.287 1.827l4.296 2.926c.64.436 1.532.238 1.996-.443.394-.577.347-1.316-.066-1.792"/>
            <path fill="#EBF2FF" d="M240.52 82.077a.227.227 0 0 1-.053-.165.245.245 0 0 1 .08-.162 1.737 1.737 0 0 0 .564-1.476c-.315.466-1.076 1.224-2.43.558 0 0-2.589 1.56-4.517-.74a1.03 1.03 0 0 0 .435.942l4.295 2.924c.537.367 1.293.201 1.681-.371.325-.479.301-1.099-.056-1.51"/>
            <path fill="#FFF" d="M234.06 79.969c.034.043.07.083.104.124.003-.042.008-.083.015-.124h-.119zM241.11 80.273c.12-.177.175-.311.175-.311h-.241c.032.101.054.206.066.31"/>
            <g>
                <path fill="#FFCE05" d="M98.757 92.694a.462.462 0 0 1-.461.462H78.912a.462.462 0 0 1-.461-.462V71.811c0-.255.206-.461.461-.461h19.384c.255 0 .461.206.461.461v20.883z"/>
                <path fill="#FFF" d="M76.836 75.792a.461.461 0 0 1-.461.461h-2.25a.461.461 0 0 1-.462-.461V73.6c0-.255.207-.462.462-.462h2.25c.254 0 .461.207.461.462v2.192zm0 5.019a.462.462 0 0 1-.461.461h-2.25a.462.462 0 0 1-.462-.461v-2.192c0-.255.207-.462.462-.462h2.25c.254 0 .461.207.461.462v2.192zm0 5.08a.462.462 0 0 1-.461.462h-2.25a.462.462 0 0 1-.462-.462V83.7c0-.255.207-.461.462-.461h2.25c.254 0 .461.206.461.461v2.192zm0 4.966a.462.462 0 0 1-.461.461h-2.25a.462.462 0 0 1-.462-.461v-2.193c0-.255.207-.461.462-.461h2.25c.254 0 .461.206.461.461v2.193zm1.096-19.507h-5.365a.462.462 0 0 0-.462.461v20.826c0 .255.207.462.462.462h5.365a.462.462 0 0 0 .462-.462V71.811a.462.462 0 0 0-.462-.461z"/>
                <g transform="translate(98.7 71.35)">
                    <mask id="d" fill="#fff">
                        <use xlink:href="#c"/>
                    </mask>
                    <path fill="#FFF" d="M4.788 4.5a.462.462 0 0 1-.461.461h-2.25a.462.462 0 0 1-.462-.462V2.307c0-.255.207-.461.462-.461h2.25c.254 0 .461.206.461.461V4.5zm0 5.018a.462.462 0 0 1-.461.462h-2.25a.462.462 0 0 1-.462-.462V7.326c0-.255.207-.461.462-.461h2.25c.254 0 .461.206.461.461v2.192zm0 5.081a.462.462 0 0 1-.461.462h-2.25a.462.462 0 0 1-.462-.462v-2.192c0-.255.207-.462.462-.462h2.25c.254 0 .461.207.461.462v2.192zm0 4.965a.462.462 0 0 1-.461.462h-2.25a.462.462 0 0 1-.462-.462v-2.192c0-.255.207-.461.462-.461h2.25c.254 0 .461.206.461.461v2.192zM5.884.057H.52A.462.462 0 0 0 .057.52v20.826c0 .255.207.461.462.461h5.365a.462.462 0 0 0 .462-.461V.519a.462.462 0 0 0-.462-.462z" mask="url(#d)"/>
                </g>
                <path fill="#FF564D" d="M95.008 82.253a6.404 6.404 0 1 1-12.807 0 6.404 6.404 0 0 1 12.807 0"/>
                <path fill="#FFF" d="M90.893 81.968l-2.96-2.96a.364.364 0 0 0-.62.256v5.92a.363.363 0 0 0 .62.258l2.96-2.96a.366.366 0 0 0 0-.514"/>
            </g>
            <g transform="translate(104 283.031)">
                <use stroke="#0A4568" stroke-width="2" xlink:href="#e"/>
            </g>
            <g transform="translate(211 283.031)">
                <use stroke="#0A4568" stroke-width="2" xlink:href="#f"/>
            </g>
            <circle cx="160.458" cy="283.458" r="2.458" stroke="#0B4568" stroke-width="2"/>
            <circle cx="66.458" cy="255.458" r="2.458" stroke="#0B4568" stroke-width="2"/>
            <g>
                <g transform="translate(104.674 108.375)">
                    <path fill="#000" d="M42.039 5.674c1.294 3.352-.995 17.11 5.398 16.393-4.399 5.398-9.677 6.729-13.595 2.998L26.045 6.074c-.4-5.398 12.195-10.237 15.994-.4z"/>
                    <path fill="#B05631" d="M26.598 74.51l-7.78-8.973s-3.416 12.173 4.18 56.553h2.8l.8-47.58z"/>
                    <path fill="#004A70" d="M25.797 122.09H23s-7.233 2.8-6.433 4.399h9.396l-.165-4.399z"/>
                    <path fill="#BA643B" d="M30.343 74.51l7.78-8.973s3.416 12.173-4.182 56.553h-2.799l-.8-47.58z"/>
                    <path fill="#004A70" d="M31.172 122.09h2.798s7.233 2.8 6.434 4.399h-9.397l.165-4.399z"/>
                    <path fill="#B05631" d="M20.827 19.813c.172 1.123-.457 2.149-1.403 2.294-.945.143-1.851-.649-2.023-1.772l-.214-1.406c-.172-1.122.457-2.149 1.402-2.293.947-.145 1.852.648 2.024 1.77l.214 1.407z"/>
                    <path fill="#BD6144" d="M36.113 19.68c-.171 1.122.456 2.15 1.403 2.293.946.144 1.851-.648 2.023-1.771l.214-1.406c.171-1.123-.457-2.15-1.402-2.294-.946-.145-1.852.649-2.024 1.771l-.214 1.406z"/>
                    <path fill="#B05631" d="M24.252 34.438s-8.73-2.43-18.997 29.982l3.173.926c1.57-3.686 10.374-23.56 14.584-23.534l1.24-7.374z"/>
                    <path fill="#B05631" d="M8.283 64.559l-2.9-.787c-.636 1.847-1.885 3.046-1.676 5.105.168 1.662.788 3.228 1.43 4.753.943 2.243 2.135.244 2.561-1.233.487-1.682.939-6.933.585-7.838zM36.702 34.628s9.052.387 8.802 34.385l-3.305-.1c-.352-3.99-2.586-25.612-6.597-26.889l1.1-7.396z"/>
                    <path fill="#B05631" d="M42.5 68.513l2.998.2c0 1.954.791 3.494-.077 5.373-.701 1.516-1.796 2.796-2.9 4.028-1.622 1.815-2.097-.464-2.02-1.999.087-1.749 1.37-6.861 1.999-7.602z"/>
                    <mask id="h" fill="#fff">
                        <use xlink:href="#g"/>
                    </mask>
                    <path fill="#B05631" d="M25.881 34.195h2.589v-8.063H25.88z" mask="url(#h)"/>
                    <path fill="#BD6144" d="M28.47 34.195h2.588v-8.063H28.47z" mask="url(#h)"/>
                    <path fill="#BA643B" d="M28.47 12.537h-9.782S17.051 30.14 28.471 30.26V12.537z" mask="url(#h)"/>
                    <path fill="#C46F4B" d="M28.47 12.537h9.782s1.637 17.603-9.783 17.723V12.537z" mask="url(#h)"/>
                    <path fill="#BA643B" d="M28.473 33.713c-1.273-.168-8.013-.866-10.662 2.747-2.01 2.74 3.064 13.062 3.732 18.26.631 4.94-4.611 9.318-2.74 14.025 1.554 3.907 5.634 5.875 9.67 5.959V33.713z" mask="url(#h)"/>
                    <path fill="#C46F4B" d="M28.474 33.713c1.273-.167 8.012-.866 10.663 2.747 2.009 2.741-3.066 13.063-3.732 18.26-.634 4.94 4.61 9.319 2.739 14.025-1.554 3.908-5.634 5.875-9.67 5.959v-40.99z" mask="url(#h)"/>
                    <path fill="#1A1A1A" d="M24.274 19.667a.9.9 0 1 1-1.799.002.9.9 0 0 1 1.8-.002M33.88 19.667a.9.9 0 1 1-1.799.002.9.9 0 0 1 1.8-.002" mask="url(#h)"/>
                    <path fill="#E58080" d="M26.818 27.164l1.46.308v-1.507h-2.65zM28.282 25.969v1.507l1.459-.308 1.19-1.2z" mask="url(#h)"/>
                    <path fill="#F9A5A5" d="M30.927 25.97l-1.59-.8-1.06.4v-.005l-1.059-.4-1.59.8 2.65.385v.004z" mask="url(#h)"/>
                    <path fill="#FFF" d="M28.427 89.638V62.449l-9.795.4s-1.582 9.197-.191 26.789h9.986zM28.437 89.638V62.449l9.796.4s2.406 9.796.59 26.789H28.437z" mask="url(#h)"/>
                    <path fill="#000" d="M28.478 5.232C15.287 5.175 17.714 16.35 17.714 16.35s4.944.533 10.764.482v-11.6zM28.483 5.232C41.675 5.175 39.247 16.35 39.247 16.35s-4.943.533-10.764.482v-11.6z" mask="url(#h)"/>
                    <path fill="#28BCBC" d="M21.339 42.024l-1.1-7.396s-3.392.138-6.04 7.282c1.514 1.696 2.996 3.424 4.495 5.124.723-2.704 1.524-4.653 2.645-5.01zM42.467 41.206c-2.6-6.447-5.765-6.578-5.765-6.578l-1.1 7.396c1.126.359 1.93 2.326 2.654 5.05a1157.3 1157.3 0 0 1 4.211-5.868z" mask="url(#h)"/>
                    <path fill="#28BCBC" d="M23.896 67.381l4.577-2.399V40.326l-3.977-6.734c-2.385.162-5.188.826-6.685 2.868-2.01 2.74 3.064 13.062 3.732 18.26.461 3.604-2.816 6.91-3.68 10.262l6.033 2.4zM39.083 64.982c-.863-3.352-4.14-6.658-3.678-10.26.666-5.2 5.74-15.521 3.731-18.262-1.405-1.916-3.963-2.62-6.243-2.832l-4.42 7.098v24.256l4.62 2.4 5.99-2.4z" mask="url(#h)"/>
                    <path fill="#FFCE05" d="M36.603 33.93l-3.966-.668-4.01 7.33s5.993.534 7.976-6.663" mask="url(#h)"/>
                    <path fill="#FFCE05" d="M28.603 33.93l-3.966-.668-4.01 7.33s5.993.534 7.976-6.663" mask="url(#h)" transform="matrix(-1 0 0 1 49.23 0)"/>
                </g>
                <g transform="scale(-1 1) rotate(11 -766.526 -464.413)">
                    <mask id="j" fill="#fff">
                        <use xlink:href="#i"/>
                    </mask>
                    <path fill="#FFCE05" d="M-.425-3.251l26.732 8.686-4.076 12.544-26.732-8.686z" mask="url(#j)"/>
                </g>
                <g transform="scale(-1 1) rotate(11 -805.433 -468.16)">
                    <mask id="l" fill="#fff">
                        <use xlink:href="#k"/>
                    </mask>
                    <path fill="#1CB2E3" d="M.128-3.517l24.015 7.802-4.38 13.48L-4.253 9.96z" mask="url(#l)"/>
                </g>
                <g transform="scale(-1 1) rotate(11 -755.394 -478.066)">
                    <mask id="n" fill="#fff">
                        <use xlink:href="#m"/>
                    </mask>
                    <path fill="#FFF" d="M-.952-2.847l16.11 6.495-12.34 47.125-16.11-6.496z" mask="url(#n)"/>
                </g>
                <g transform="translate(78 108)">
                    <use fill="#D8D8D8" xlink:href="#o"/>
                    <rect width="1" height="2.334" x="54.841" y="20.504" stroke="#803F20" rx=".5"/>
                </g>
            </g>
            <g>
                <path fill="#D28B4A" d="M51.391 115.746s6.668.061 8.34.55l1.673.488s1.018 1.632.836 5.66c0 0-.383 3.192-.364 3.772.018.58-.019 2.267 0 3.247.018.98.199 2.83 0 2.775-.2-.054-7.585 3.675-13.206-3.537 0 0 .44-13.003 2.721-12.955"/>
                <path fill="#5E361B" d="M44.644 115.768s14.365-.362 16.76 1.016c0 0 4.426-1.814 3.555-4.426 0 0-1.379-4.208-2.685-5.006 0 0-1.523 1.886-6.24 1.451 0 0-2.901-1.741-5.15-.508 0 0-5.37 2.177-6.24 7.473"/>
                <path fill="#BF6D32" d="M44.643 115.478s-3.12 4.861-.87 7.546l3.627.363-.362 4.86h2.031s1.452-11.436 2.322-12.501l-6.748-.268z"/>
                <path fill="#5E361B" d="M49.07 128.248s1.623 2.546 3.436 3.053c1.814.508 2.223-.348 3.819 1.104 1.596 1.45 1.814.196 3.047.196 1.234 0 2.612-1.306 2.83-.508.218.798-.58 3.41-.58 3.41v2.322s-2.54 6.82-5.297 7.183c-2.757.363-5.732.653-7.256-4.063 0 0-2.83-9.07-2.031-12.697h2.031z"/>
                <path fill="#2A1D12" d="M53.524 124.98a.762.762 0 1 1-1.525-.001.762.762 0 0 1 1.525 0M60.524 124.98a.762.762 0 1 1-1.525-.001.762.762 0 0 1 1.525 0"/>
                <path fill="#D28B4A" d="M47.451 134.507v7.58l2.181.254s-1.941-6.49-2.18-7.834M47.175 126.216l.226-2.83s-.653-2.83-3.084-.762c0 0-2.213 2.25.327 5.152 0 0 2.595 4.427 2.53-1.56"/>
                <path fill="#BF6D32" d="M57.596 130.84a.798.798 0 1 1-1.596 0v-4.824a.798.798 0 1 1 1.596 0v4.825z"/>
                <path fill="#D28B4A" d="M52.82 136.16s3.888 1.147 5.531.059"/>
                <path fill="#FFF" d="M54.984 145.156s.978 1.149 1.169 1.883c.19.735.517-1.197.517-1.197v-.915l-1.686.23z"/>
                <path fill="#BDB330" d="M46.582 145.19l6.877 3.046 2.368-1.908.326.711.516-1.197s1.18.218 2.195 2.394c1.016 2.177 3.7 15.128 3.012 19.372-.69 4.245-9.007 14.366-18.452-2.285 0 0 5.137-12.625-1.61-17.196 0 0 3.669-3.424 4.768-2.938"/>
                <path fill="#FFF" d="M46.896 142.087s1.904-1.114 4.696 2.49l-1.126 2.462-4.57-2.177s.444-2.775 1-2.775"/>
                <path fill="#DDE4D5" d="M51.592 144.578s1.813 1.046 1.813 1.781v.847l-2.62-.863.807-1.765z"/>
                <path fill="#DDE4D5" d="M54.984 145.156s-1.66.1-1.58 1.08c.023.272 0 1.034 0 1.034l2.142-1.378-.562-.736z"/>
                <path fill="#91861D" d="M50.785 146.343l2.617.863 2.103-1.368.322.49-2.368 1.908-2.944-1.304z"/>
                <path fill="#BDB330" d="M43.424 165.323s-.34 23.072 6.208 23.725c6.548.653 13.814 2.612 12.355-23.118-.963-16.977-18.563-.607-18.563-.607"/>
                <path fill="#91861D" d="M42.052 147.879s-8.843 8.59-10.128 21.486c-1.286 12.896 3.131 11.541 5.19 11.25 2.059-.29 3.356-.555 3.556-4.155.198-3.601 3.6-11.454 3.6-11.454s4.66-13.56-2.218-17.127M56.67 145.842s6.475-.653 10.72 15.019c0 0 2.938 9.9 2.83 12.84-.11 2.94-1.868 0-5.769 0-4.099 0-.435-16.65-7.781-27.859"/>
                <path fill="#D28B4A" d="M65.341 173.67s3.731.49 4.141 1.166c.18.296.198.293.176.253 0 0-.865 6.463-3.924 5.947 0 0-2.697-.275-.393-7.365"/>
                <path fill="#D28B4A" d="M65.22 173.616s-3.535 4.271-2.788 4.678c.748.408 1.957-1.621 2.251-1.566.295.057.895 1.938.895 1.938l.077 1.086.789-5.793-.693-.086"/>
                <g fill="#06487E">
                    <path d="M55.935 189.425L44.758 181.5s-4.525 12.222 5.373 51.416h3.646l2.158-43.491z"/>
                    <path d="M53.836 189.659l7.488-8.159s2.981 11.066-3.649 51.416h-2.443l-1.396-43.257z"/>
                    <path d="M44.716 181.5h16.727v10.967H44.716z"/>
                </g>
                <g fill="#703F00">
                    <path d="M56.104 233h2.98s7.702 2.93 6.85 4.606H55.93l.175-4.606zM53.825 233h-2.98s-7.702 2.93-6.85 4.606H54L53.825 233z"/>
                </g>
                <g>
                    <g transform="scale(-1 1) rotate(29 -282.71 -5.193)">
                        <mask id="q" fill="#fff">
                            <use xlink:href="#p"/>
                        </mask>
                        <path fill="#FFCE05" d="M-.472-3.605L29.17 6.026l-4.52 13.91-29.641-9.632z" mask="url(#q)"/>
                    </g>
                    <g transform="scale(-1 1) rotate(29 -298.773 -9.347)">
                        <mask id="s" fill="#fff">
                            <use xlink:href="#r"/>
                        </mask>
                        <path fill="#1CB2E3" d="M.141-3.9l26.63 8.652-4.858 14.947-26.628-8.653z" mask="url(#s)"/>
                    </g>
                    <g transform="scale(-1 1) rotate(29 -277.137 -10.178)">
                        <mask id="u" fill="#fff">
                            <use xlink:href="#t"/>
                        </mask>
                        <path fill="#FFF" d="M-1.055-3.157l17.864 7.203L3.125 56.3l-17.864-7.204z" mask="url(#u)"/>
                    </g>
                    <path fill="#D28B4A" d="M37.615 190.15c-3.51.799-3.843-9.454-3.843-9.454l-.004-.216s3.663.233 5.825-.475c1.037 2.946 1.534 9.348-1.978 10.146z"/>
                    <path fill="#D28B4A" d="M41.465 183.298c.402 1.792-1.79-1.659-1.79-1.659l-.277-1.097s.154-.872.946-1.149c0 0 .718 2.112 1.12 3.905z"/>
                </g>
            </g>
            <g transform="translate(176.26 109.255)">
                <g transform="translate(4.701 .427)">
                    <mask id="w" fill="#fff">
                        <use xlink:href="#v"/>
                    </mask>
                    <path fill="#C6720E" d="M13.225.043C-3.233.377.738 20.49.695 27.282h12.53V.042z" mask="url(#w)"/>
                </g>
                <g transform="translate(17.864 .427)">
                    <mask id="y" fill="#fff">
                        <use xlink:href="#x"/>
                    </mask>
                    <path fill="#C6720E" d="M.065.043c17.093.644 12.487 20.448 12.53 27.239H.064V.042z" mask="url(#y)"/>
                </g>
                <path fill="#E09B7E" d="M10.034 16.234c.176 1.16-.472 2.22-1.45 2.37-.976.148-1.912-.67-2.089-1.83l-.221-1.453c-.177-1.159.472-2.22 1.448-2.368.978-.15 1.913.669 2.09 1.828l.222 1.453z"/>
                <path fill="#EDB6A4" d="M25.821 16.096c-.177 1.16.472 2.22 1.45 2.369.976.149 1.911-.67 2.089-1.83l.221-1.451c.177-1.16-.472-2.22-1.448-2.37-.978-.15-1.913.67-2.09 1.83l-.222 1.452z"/>
                <g fill="#E09B7E">
                    <path d="M5.502 74.386c-.091-1.807-1.415-7.087-2.065-7.852L.34 66.74c0 2.018-.816 3.609.08 5.55.724 1.566 1.855 2.887 2.995 4.16 1.675 1.874 2.167-.48 2.087-2.064"/>
                    <path d="M9.425 31.535s-9.349.4-9.09 35.515l3.413-.104c.364-4.12 2.67-26.453 6.813-27.771l-1.136-7.64z"/>
                </g>
                <g fill="#E09B7E">
                    <path d="M32.18 70.413c.006-1.637 1.078-6.475 1.69-7.2l3.103.024c.096 1.823.987 3.217.183 5.017-.648 1.452-1.715 2.705-2.793 3.914-1.585 1.78-2.187-.32-2.182-1.755"/>
                    <path d="M26.234 31.916s9.355-.128 10.76 31.6l-3.413.086c-.56-3.703-3.92-23.753-8.12-24.726l.773-6.96z"/>
                </g>
                <mask id="A" fill="#fff">
                    <use xlink:href="#z"/>
                </mask>
                <path fill="#E09B7E" d="M15.254 31.088h2.674V22.76h-2.674z" mask="url(#A)"/>
                <path fill="#EDB6A4" d="M17.927 31.088h2.674V22.76h-2.674z" mask="url(#A)"/>
                <path fill="#EAAF92" d="M17.928 8.72H7.824s-1.69 17.768 10.104 17.892V8.719z" mask="url(#A)"/>
                <path fill="#EAAF92" d="M17.927 8.72H28.03s1.69 17.768-10.103 17.892V8.719zM18.495 30.171c-1.314-.173-8.275-.895-11.012 2.838-2.075 2.83 3.166 13.49 3.854 18.86.654 5.1-5.175 9.623-3.242 14.484 1.604 4.036 6.231 6.068 10.4 6.155V30.171z" mask="url(#A)"/>
                <path fill="#F4C3AE" d="M17.931 30.591c1.315-.173 8.276-.894 11.013 2.837 2.075 2.831-3.166 13.491-3.854 18.86-.655 5.102 5.175 9.624 3.242 14.485-1.605 4.036-6.231 6.068-10.4 6.155V30.59z" mask="url(#A)"/>
                <path fill="#333" d="M16.82 72.728L7.132 63.46s-2.703 12.572 5.143 58.41h2.891l1.652-49.142zM19.036 72.728l9.687-9.268s2.702 12.572-5.145 58.41h-2.89l-1.652-49.142z" mask="url(#A)"/>
                <path fill="#B43E0E" d="M15.167 121.87h-2.89s-7.47 2.891-6.645 4.543h9.705l-.17-4.543zM20.718 121.87h2.89s7.47 2.891 6.644 4.543h-9.704l.17-4.543z" mask="url(#A)"/>
                <path fill="#EA9524" d="M17.926 1.772c-6.147.071-11.11 5.791-11.148 11.834h11.148V1.772zM17.929 1.772c6.146.071 11.11 5.791 11.148 11.834H17.929V1.772z" mask="url(#A)"/>
                <path fill="#1A1A1A" d="M13.594 16.084a.929.929 0 1 1-1.858.001.929.929 0 0 1 1.858-.001M23.515 16.084a.93.93 0 1 1-1.858 0 .93.93 0 0 1 1.858 0" mask="url(#A)"/>
                <path fill="#C62424" d="M16.222 23.827l1.507.318v-1.557h-2.736zM17.733 22.592v1.557l1.508-.318 1.228-1.239z" mask="url(#A)"/>
                <path fill="#F44E4E" d="M20.464 22.593l-1.64-.826-1.095.413v-.005l-1.095-.413-1.642.826 2.737.398v.004z" mask="url(#A)"/>
                <path fill="#333" d="M8.624 59.72c-1.113 2.342-2.047 4.656-1.095 7.053 1.605 4.035 6.232 6.068 10.401 6.155V59.72H8.624zM17.931 59.72v13.208c4.17-.087 8.796-2.119 10.401-6.155.953-2.396.019-4.71-1.095-7.052h-9.306z" mask="url(#A)"/>
                <path fill="#FF564D" d="M17.93 61.922V34.975l-.046.002h-.138a6.53 6.53 0 0 1-4.6-1.905 6.515 6.515 0 0 1-1.482-2.318c-1.215.253-2.136.498-3.125 1.073-.506.295-1.53 8.622-.429 11.28 1.365 3.295 2.365 6.865 2.662 9.181.433 3.376-1.974 6.5-3.09 9.634H17.93zM17.943 61.922V34.975l.047.002h.138a6.53 6.53 0 0 0 4.599-1.905 6.508 6.508 0 0 0 1.482-2.318c1.215.253 2.137.498 3.125 1.073.507.295 1.53 8.622.43 11.28-1.366 3.295-2.365 6.865-2.662 9.181-.433 3.376 1.973 6.5 3.09 9.634H17.943z" mask="url(#A)"/>
                <path fill="#CCC" d="M17.943 34.975s-4.652-.426-6.279-4.634l-3.95 1.487S11 42.65 17.943 34.975" mask="url(#A)"/>
                <path fill="#F2F2F2" d="M17.9 34.975s4.651-.426 6.278-4.634l3.952 1.487S24.842 42.65 17.9 34.975" mask="url(#A)"/>
                <path fill="#565657" d="M17.883 63.437H6.923l.826-3.028h10.134zM28.844 63.437h-10.96v-3.028h10.134z" mask="url(#A)"/>
            </g>
            <g transform="rotate(18 -297.45 671.097)">
                <g transform="translate(34.154 9.076)">
                    <mask id="C" fill="#fff">
                        <use xlink:href="#B"/>
                    </mask>
                    <path fill="#FFCE05" d="M-.425-3.251l26.732 8.686-4.076 12.544-26.732-8.686z" mask="url(#C)"/>
                </g>
                <g transform="translate(34.154 16.569)">
                    <mask id="E" fill="#fff">
                        <use xlink:href="#D"/>
                    </mask>
                    <path fill="#1CB2E3" d="M.128-3.517l24.015 7.802-4.38 13.48L-4.253 9.96z" mask="url(#E)"/>
                </g>
                <g transform="translate(31.344 7.203)">
                    <mask id="G" fill="#fff">
                        <use xlink:href="#F"/>
                    </mask>
                    <path fill="#FFF" d="M-.952-2.847l16.11 6.495-12.34 47.125-16.11-6.496z" mask="url(#G)"/>
                </g>
                <rect width="2" height="4" x=".242" y=".17" fill="#D3896E" rx="1"/>
            </g>
            <g>
                <path fill="#8F5C3D" d="M273.549 146.631l-8.531-.45c2.716-.714 7.33-9.523 8.53-11.674v12.124zM269.609 115.746s-6.668.061-8.34.55l-1.673.488s-1.018 1.632-.836 5.66c0 0 .383 3.192.364 3.772-.018.58.019 2.267 0 3.247-.018.98-.199 2.83 0 2.775.2-.054 7.585 3.675 13.206-3.537 0 0-.44-13.003-2.721-12.955M273.825 126.216l-.226-2.83s.653-2.83 3.084-.762c0 0 2.213 2.25-.327 5.152 0 0-2.595 4.427-2.53-1.56"/>
                <path fill="#2A1813" d="M271.93 128.248s-1.623 2.546-3.436 3.053c-1.814.508-2.223-.348-3.819 1.104-1.596 1.45-1.814.196-3.047.196-1.234 0-2.612-1.306-2.83-.508-.218.798.58 3.41.58 3.41v2.322s2.54 6.82 5.297 7.183c2.757.363 5.732.653 7.256-4.063 0 0 2.83-9.07 2.031-12.697h-2.031z"/>
                <path fill="#2A1813" d="M276.304 115.48c-1.013-5.087-6.187-7.185-6.187-7.185-2.25-1.233-5.152.508-5.152.508-4.716.435-6.24-1.451-6.24-1.451-1.305.798-2.684 5.006-2.684 5.006-.87 2.612 3.555 4.426 3.555 4.426 1.274-.733 5.934-.974 10.018-1.038h-.005c.87 1.065 2.322 12.502 2.322 12.502h2.031l-.362-4.861 3.627-.363c2.25-2.685-.87-7.546-.87-7.546l-.053.002z"/>
                <path fill="#7A4C2F" d="M263.404 130.84a.798.798 0 1 0 1.596 0v-4.824a.798.798 0 1 0-1.596 0v4.825z"/>
                <path fill="#8F5C3D" d="M268.18 136.16s-3.888 1.147-5.531.059"/>
                <path fill="#2A1D12" d="M267.476 124.98a.762.762 0 1 0 1.525-.001.762.762 0 0 0-1.525 0M260.476 124.98a.762.762 0 1 0 1.525-.001.762.762 0 0 0-1.525 0"/>
                <path fill="#3BB4BC" d="M259.387 161.077c.672-5.234 2.076-11.4 2.749-12.84 1.015-2.177 2.195-2.395 2.195-2.395l.516 1.197.326-.711 2.368 1.908 6.877-3.047c1.1-.486 4.768 2.938 4.768 2.938-3.61 2.445-3.818 7.195-3.231 11.084l2.368 1.29c-.037 2.1-.285 3.885-.744 5.356.002 3.463-.256 22.597-6.21 23.191-6.238.622-13.128 2.43-12.506-19.642l-1.895-2.96c.952-1.53 1.382-2.721 1.29-3.573-.034-.317.342-.916 1.129-1.796z"/>
                <path fill="#229699" d="M270.215 146.343l-2.617.863-2.103-1.368-.322.49 2.368 1.908 2.944-1.304z"/>
                <g>
                    <path fill="#FFF" d="M266.016 145.156s-.978 1.149-1.169 1.883c-.19.735-.517-1.197-.517-1.197v-.915l1.686.23zM274.104 142.087s-1.904-1.114-4.696 2.49l1.126 2.462 4.57-2.177s-.444-2.775-1-2.775"/>
                    <path fill="#DDE4D5" d="M269.408 144.578s-1.813 1.046-1.813 1.781v.847l2.62-.863-.807-1.765z"/>
                    <path fill="#DDE4D5" d="M266.016 145.156s1.66.1 1.58 1.08c-.023.272 0 1.034 0 1.034l-2.142-1.378.562-.736z"/>
                </g>
                <g>
                    <path fill="#8F5C3D" d="M283.964 181.71c.085 2.823.584 7.091 2.844 6.781 3.359-.46 3.418-6.504 2.687-9.352-2.085.487-5.5-.032-5.5-.032l-.005.054a2.692 2.692 0 0 0-.549-.36s-.456 2.288-.805 3.981c-.259 1.254.775-.221 1.328-1.071z"/>
                    <path fill="#229699" d="M278.747 148.39s9.42 7.952 11.602 20.727c2.182 12.775-2.319 11.731-4.393 11.585-2.074-.146-3.387-.32-3.836-3.897-.45-3.579-4.391-11.175-4.391-11.175s-5.595-13.201 1.018-17.24"/>
                </g>
                <g fill="#0F2D45">
                    <path d="M266.761 192.483l1.214 40.395h2.209c8.543-36.502 6.337-49.617 5.972-51.33l-.004-.198-16.724.292.007.383c-.585 2.249-3.026 14.851 3.538 50.856h3.082l.536-40.395.17-.003z"/>
                </g>
                <g fill="#703F00">
                    <path d="M267.945 233h2.379s8.567 2.93 7.62 4.606h-9.999V233zM266 233h-3.155s-7.702 2.93-6.85 4.606H266V233z"/>
                </g>
                <g>
                    <g transform="rotate(30 -114.523 599.243)">
                        <mask id="I" fill="#fff">
                            <use xlink:href="#H"/>
                        </mask>
                        <path fill="#FFCE05" d="M-.447-3.415l28.081 9.124-4.282 13.177-28.08-9.125z" mask="url(#I)"/>
                    </g>
                    <g transform="rotate(30 -129.21 595.308)">
                        <mask id="K" fill="#fff">
                            <use xlink:href="#J"/>
                        </mask>
                        <path fill="#1CB2E3" d="M.134-3.695l25.227 8.197-4.602 14.16-25.225-8.198z" mask="url(#K)"/>
                    </g>
                    <g transform="rotate(30 -109.375 594.72)">
                        <mask id="M" fill="#fff">
                            <use xlink:href="#L"/>
                        </mask>
                        <path fill="#FFF" d="M-1-3.324L15.923 4.26 2.96 59.286-13.963 51.7z" mask="url(#M)"/>
                    </g>
                </g>
                <g fill="#2A1813">
                    <path d="M263.03 122v1.266l-3.269-.38L258 122zM265.714 122.004v1.266l3.268-.38 1.761-.886z"/>
                </g>
                <g>
                    <path stroke="#2A1D12" stroke-width=".6" d="M268.5 128.38c1.38 0 2.5-1.556 2.5-3.476s-5-1.92-5 0 1.12 3.477 2.5 3.477zM260.5 128.38c1.38 0 2.5-1.556 2.5-3.476s-5-1.92-5 0 1.12 3.477 2.5 3.477z"/>
                    <path stroke="#FFCE05" stroke-linecap="round" stroke-linejoin="round" stroke-width=".4" d="M258.793 123.634c3.386-1.002 7.394-1.002 12.024 0M270.768 123.63l2.81-.627"/>
                </g>
                <g>
                    <path fill="#229699" d="M264.33 145.88s-6.475-.693-10.72 15.939c0 0-2.938 10.508-2.83 13.627.11 3.12 1.868 0 5.769 0 4.099 0 .435-17.67 7.781-29.566"/>
                    <path fill="#8F5C3D" d="M255.659 175.414s-3.731.518-4.141 1.236c-.18.314-.198.312-.176.269 0 0 .865 6.859 3.924 6.311 0 0 2.697-.292.393-7.816"/>
                    <path fill="#8F5C3D" d="M255.78 175.356s3.535 4.532 2.788 4.964c-.748.433-1.957-1.72-2.251-1.661-.295.06-.895 2.055-.895 2.055l-.077 1.154-.789-6.148.693-.092"/>
                </g>
            </g>
            <circle cx="256.458" cy="253.458" r="2.458" stroke="#0B4568" stroke-width="2"/>
        </g>
    </g>
</svg>
