<svg xmlns="http://www.w3.org/2000/svg" width="15" height="14" viewBox="0 0 15 14">
    <path fill="#FFF" fill-rule="evenodd" d="M13.923 4.761l-.914.909-1.617-1.607.915-.909a.781.781 0 0 1 1.074 0l.542.538a.754.754 0 0 1 0 1.07zm-3.344 8.444H4.877V9.36a.336.336 0 0 0-.336-.334H.674V.669h9.905v3.256L7.107 7.378a.332.332 0 0 0-.095.188L6.67 9.89l-.2.2a.333.333 0 0 0 .237.572.336.336 0 0 0 .238-.098l.201-.2 2.34-.34a.337.337 0 0 0 .19-.094l.903-.9v4.174zm-6.375-.474L1.15 9.695h3.054v3.036zm4.828-5.187a1.982 1.982 0 0 0-.81-.328l2.694-2.68.57.567-2.454 2.44zm.805 1.28a1.966 1.966 0 0 0-.33-.807l2.456-2.44.57.566-2.696 2.68zm-2.19-.945c.42-.082.862.046 1.17.352.307.306.436.746.354 1.163l-1.785.26.26-1.775zm7.172-3.652c0-.38-.15-.739-.42-1.008l-.541-.538c-.27-.27-.63-.417-1.014-.417-.383 0-.743.148-1.014.417l-.577.574V.335A.336.336 0 0 0 10.916 0H.336A.336.336 0 0 0 0 .335V9.36c0 .089.036.174.099.237l4.203 4.18c.064.062.15.097.239.097h6.375c.186 0 .337-.15.337-.334V8.362l3.146-3.127c.27-.27.42-.628.42-1.008z"/>
</svg>
