<svg xmlns="http://www.w3.org/2000/svg" width="12" height="14" viewBox="0 0 12 14">
    <g fill="#FFF" fill-rule="evenodd">
        <path d="M11.368 13.113c0 .136-.144.25-.315.25H.947c-.17 0-.315-.114-.315-.25V3.818h1.894c.508 0 1.263-.339 1.263-1.273V.636h7.264c.17 0 .315.115.315.25v12.227zM3.158 1.086v1.46c0 .58-.484.633-.633.636H1.078l2.08-2.096zM11.053 0h-7.58v.003a.312.312 0 0 0-.223.09L.093 3.275a.318.318 0 0 0-.09.225H0v9.613c0 .49.425.887.947.887h10.106c.522 0 .947-.398.947-.887V.887c0-.49-.425-.887-.947-.887z"/>
        <path d="M10.106 5.728H2.21a.317.317 0 0 0-.315.318c0 .176.14.318.315.318h7.896a.317.317 0 0 0 .316-.318.317.317 0 0 0-.316-.318M10.106 7.319H2.21a.317.317 0 0 0-.315.318c0 .176.14.318.315.318h7.896a.317.317 0 0 0 .316-.318.317.317 0 0 0-.316-.318M10.106 8.91H2.21a.317.317 0 0 0-.315.318c0 .176.14.318.315.318h7.896a.317.317 0 0 0 .316-.318.317.317 0 0 0-.316-.318"/>
    </g>
</svg>
