<svg xmlns="http://www.w3.org/2000/svg" width="28" height="28" viewBox="0 0 28 28">
    <defs>
        <filter id="a" width="104.2%" height="111.8%" x="-2%" y="-4.2%" filterUnits="objectBoundingBox">
            <feOffset dy="2" in="SourceAlpha" result="shadowOffsetOuter1"/>
            <feGaussianBlur in="shadowOffsetOuter1" result="shadowBlurOuter1" stdDeviation="2"/>
            <feColorMatrix in="shadowBlurOuter1" result="shadowMatrixOuter1" values="0 0 0 0 0 0 0 0 0 0 0 0 0 0 0 0 0 0 0.5 0"/>
            <feMerge>
                <feMergeNode in="shadowMatrixOuter1"/>
                <feMergeNode in="SourceGraphic"/>
            </feMerge>
        </filter>
    </defs>
    <path fill="#29B6E4" fill-rule="evenodd" d="M39.286 32.405l-2.035 2.035a3.333 3.333 0 0 0-.981-2.308l-1.403-1.402a3.327 3.327 0 0 0-2.31-.981l2.035-2.035a2.317 2.317 0 0 1 1.647-.682 2.31 2.31 0 0 1 1.645.682l1.402 1.401c.44.44.682 1.025.682 1.646 0 .62-.242 1.205-.682 1.644zM27.621 44.05l-3.483.51-1.698-1.698.51-3.483a2.305 2.305 0 0 1 3.172.097l1.403 1.402c.44.44.681 1.025.681 1.646a2.3 2.3 0 0 1-.585 1.526zM41 30.761c0-.897-.35-1.74-.984-2.375l-1.403-1.402A3.333 3.333 0 0 0 36.24 26c-.897 0-1.741.349-2.376.983L22.102 38.744a.511.511 0 0 0-.146.29l-.557 3.811a.547.547 0 0 0-.045.15l-.348 2.386a.542.542 0 0 0 .533.618.488.488 0 0 0 .078-.006l2.388-.349a.532.532 0 0 0 .148-.045l3.81-.557a.509.509 0 0 0 .29-.146l.005-.004 8.012-8.011.001-.002 3.745-3.744A3.335 3.335 0 0 0 41 30.761z" filter="url(#a)" transform="translate(-17 -24)"/>
</svg>
