<svg xmlns="http://www.w3.org/2000/svg" width="18" height="14" viewBox="0 0 18 14">
    <g fill="#FFF" fill-rule="evenodd">
        <path d="M10.73 7.037a.446.446 0 0 0-.513 0L8.74 8.587 5.992 6.365a.624.624 0 0 0-.716 0L2.402 9.342v2.148h11.13V8.902h-.006L10.73 7.037z"/>
        <path d="M8.932 6.564A1.08 1.08 0 0 0 7.855 5.48c-.445 0-.827.272-.991.658l1.614 1.306c.274-.197.454-.517.454-.881"/>
        <path d="M1.65 3.344c-.499 0-.905.377-.905.84v8.102c0 .462.406.839.905.839h12.524c.499 0 .905-.377.905-.84V4.184c0-.462-.406-.839-.905-.839H1.65zm12.524 10.377H1.65c-.832 0-1.509-.644-1.509-1.435V4.183c0-.79.677-1.435 1.51-1.435h12.523c.831 0 1.508.644 1.508 1.435v8.103c0 .791-.677 1.435-1.508 1.435z"/>
        <path d="M15.7 12.339c-.077 0-.158-.005-.243-.016a.299.299 0 1 1 .074-.59c.494.06.732-.112.79-.575l.998-8.042c.057-.46-.3-.882-.795-.942L4.094.67c-.494-.06-.945.265-1.002.725l-.237 1.712a.301.301 0 0 1-.34.255.3.3 0 0 1-.258-.336l.236-1.708C2.591.537 3.34-.02 4.167.078l12.43 1.504c.826.1 1.419.82 1.321 1.606l-.998 8.042c-.089.715-.528 1.109-1.22 1.109"/>
    </g>
</svg>
