<svg xmlns="http://www.w3.org/2000/svg" width="40" height="40" viewBox="0 0 40 40">
    <g fill="none" fill-rule="evenodd">
        <circle cx="20" cy="20" r="20" fill="#29B6E4"/>
        <path stroke="#FFF" stroke-linecap="round" stroke-linejoin="round" d="M27.35 21.427V29.705c0 .586-.489 1.062-1.094 1.062h-8.89v-6.44H11M11 24.121V11.078c0-.595.482-1.078 1.078-1.078h13.994c.595 0 1.077.483 1.077 1.078v4.213M17.226 30.734l-6.2-6.25"/>
        <path stroke="#FFF" stroke-linecap="round" stroke-linejoin="round" d="M24.681 24.02l7.573-7.515c.576-.571.356-1.726-.493-2.581l-.095-.097c-.849-.854-2.002-1.084-2.577-.513l-7.573 7.515-.516 3.53 3.681-.339zM22 20.5s2.36.128 2.794 3.175M27.521 15.196l3.022 2.78M20.875 24.5l-.875 1"/>
        <path fill="#FFF" d="M27.231 15L22 20.2c2.398 1.867 3.349 3.049 2.853 3.545-.496.497 1.442-1.375 5.812-5.614L27.23 15zM11.12 24.247l6.192 6.499v-6.5z"/>
    </g>
</svg>
