<svg xmlns="http://www.w3.org/2000/svg" xmlns:xlink="http://www.w3.org/1999/xlink" width="40" height="40" viewBox="0 0 40 40">
    <defs>
        <path id="a" d="M.818 4.324l.047-1.811H.5a.5.5 0 0 1-.39-.814L1.33.186a.5.5 0 0 1 .775-.004l1.25 1.517a.5.5 0 0 1-.39.818l-.454-.004v1.824a.5.5 0 0 1-.5.5h-.693a.5.5 0 0 1-.5-.513z"/>
    </defs>
    <g fill="none" fill-rule="evenodd">
        <circle cx="20" cy="20" r="20" fill="#28BCBC"/>
        <g fill="#FFF">
            <path d="M26.884 27.473c0 .17-.176.314-.385.314H14.157c-.209 0-.386-.144-.386-.314V15.796h2.314c.62 0 1.543-.425 1.543-1.598v-2.399h8.87c.21 0 .386.144.386.315v15.359zM16.857 12.365v1.833c0 .728-.59.796-.774.799h-1.766l2.54-2.632zM26.499 11h-9.257v.004c-.1 0-.199.037-.272.113l-3.857 3.997a.406.406 0 0 0-.11.283H13v12.076c0 .614.52 1.114 1.157 1.114h12.342c.637 0 1.157-.5 1.157-1.114v-15.36c0-.613-.52-1.113-1.157-1.113z"/>
            <path d="M25.343 18.195H15.7a.393.393 0 0 0-.386.4c0 .221.172.4.386.4h9.643a.393.393 0 0 0 .385-.4c0-.221-.172-.4-.385-.4M25.343 20.194H15.7a.393.393 0 0 0-.386.4c0 .22.172.4.386.4h9.643a.393.393 0 0 0 .385-.4c0-.222-.172-.4-.385-.4M25.343 22.192H15.7a.393.393 0 0 0-.386.4c0 .221.172.4.386.4h9.643a.393.393 0 0 0 .385-.4c0-.221-.172-.4-.385-.4"/>
        </g>
        <g transform="translate(22 24)">
            <use fill="#FFF" xlink:href="#a"/>
            <path stroke="#28BCBC" d="M.352 3.002a1 1 0 0 1-.63-1.617L.94-.127a1 1 0 0 1 1.55-.009l1.251 1.517a1 1 0 0 1-.73 1.636v1.32a1 1 0 0 1-1 1h-.693a1 1 0 0 1-1-1v-.026l.034-1.309z"/>
        </g>
    </g>
</svg>
