<svg xmlns="http://www.w3.org/2000/svg" width="17" height="17" viewBox="0 0 17 17">
    <g fill="#FFF" fill-rule="evenodd">
        <path d="M15.263 9.418l-.761.17c-.342.075-.66.365-.775.708-.08.243-.179.482-.295.714-.159.32-.139.75.049 1.045l.418.657-1.188 1.187-.657-.419c-.289-.183-.743-.199-1.044-.047-.23.115-.471.214-.715.295-.34.113-.63.43-.707.773l-.17.762H7.74l-.17-.76a1.108 1.108 0 0 0-.706-.775 5.555 5.555 0 0 1-.715-.294c-.31-.156-.76-.136-1.045.047l-.658.418-1.187-1.187.418-.657a1.11 1.11 0 0 0 .048-1.045 5.496 5.496 0 0 1-.295-.716 1.113 1.113 0 0 0-.772-.706l-.764-.17V7.74l.762-.17c.342-.074.66-.364.775-.708a5.16 5.16 0 0 1 .294-.712c.16-.322.14-.752-.048-1.046l-.418-.658 1.186-1.187.657.419c.288.184.738.202 1.047.047.226-.113.466-.212.717-.295.34-.115.63-.433.704-.772l.17-.763h1.677l.17.762c.076.34.365.659.708.774.248.082.487.181.713.294.31.155.757.137 1.047-.047l.656-.419L13.9 4.446l-.42.658a1.117 1.117 0 0 0-.046 1.046c.115.23.214.47.295.714.114.34.432.63.773.706l.762.17v1.678zm.32-2.661l-.84-.185a.228.228 0 0 1-.04-.032 6.206 6.206 0 0 0-.346-.84c-.004-.015 0-.049-.01-.044l.474-.744a.923.923 0 0 0-.125-1.122L13.37 2.463a.942.942 0 0 0-1.127-.125l-.721.461-.053.005a6.256 6.256 0 0 0-.84-.346c-.013-.007-.037-.03-.036-.025l-.192-.856a.919.919 0 0 0-.883-.711H7.64a.92.92 0 0 0-.882.708l-.186.84a.233.233 0 0 1-.032.04 8.685 8.685 0 0 0-.885.355l-.74-.47a.943.943 0 0 0-1.126.122l-1.33 1.33a.924.924 0 0 0-.12 1.123l.461.723a.207.207 0 0 1 .005.053 6.048 6.048 0 0 0-.346.84c-.008.013-.03.036-.024.036l-.863.191a.923.923 0 0 0-.706.883v1.878c0 .414.304.793.708.883l.84.185c.014.006.037.03.04.031.093.283.21.57.347.843.004.014.002.047.01.042l-.474.742a.926.926 0 0 0 .124 1.125l1.33 1.329a.948.948 0 0 0 1.123.122l.724-.462.052-.004c.27.135.555.252.84.347.013.007.035.028.035.024l.193.856a.92.92 0 0 0 .882.71h1.877a.92.92 0 0 0 .883-.706l.186-.842a.182.182 0 0 1 .034-.039c.289-.096.574-.214.882-.356l.742.473c.14.089.307.136.48.136a.91.91 0 0 0 .643-.26l1.33-1.329a.924.924 0 0 0 .123-1.125l-.462-.722c-.005-.014-.005-.049-.005-.053a6.22 6.22 0 0 0 .347-.84c.006-.013.03-.036.023-.036l.86-.191a.923.923 0 0 0 .709-.883V7.64a.922.922 0 0 0-.709-.883z"/>
        <path d="M8.579 10.121c-.85 0-1.543-.692-1.543-1.542 0-.85.692-1.543 1.543-1.543.85 0 1.542.692 1.542 1.543 0 .85-.692 1.542-1.542 1.542m0-4.113a2.574 2.574 0 0 0-2.571 2.57 2.574 2.574 0 0 0 2.57 2.572 2.574 2.574 0 0 0 2.572-2.571 2.574 2.574 0 0 0-2.571-2.571"/>
    </g>
</svg>
