<svg xmlns="http://www.w3.org/2000/svg" xmlns:xlink="http://www.w3.org/1999/xlink" viewBox="0 0 3142.44 1103.24"><defs><style>.cls-1,.cls-2,.cls-6{fill:#0d6192;}.cls-1,.cls-3{clip-rule:evenodd;}.cls-3,.cls-4{fill:none;}.cls-5{fill:#1cb2e3;}.cls-6{fill-rule:evenodd;}.cls-7{clip-path:url(#clip-path);}.cls-8{clip-path:url(#clip-path-2);}.cls-9{clip-path:url(#clip-path-3);}.cls-10{clip-path:url(#clip-path-5);}.cls-11{clip-path:url(#clip-path-7);}.cls-12{clip-path:url(#clip-path-9);}.cls-13{clip-path:url(#clip-path-11);}.cls-14{clip-path:url(#clip-path-12);}.cls-15{fill:#ffce05;}.cls-16{clip-path:url(#clip-path-13);}.cls-17{clip-path:url(#clip-path-15);}.cls-18{clip-path:url(#clip-path-17);}.cls-19{clip-path:url(#clip-path-19);}.cls-20{clip-path:url(#clip-path-21);}.cls-21{clip-path:url(#clip-path-23);}</style><clipPath id="clip-path"><path class="cls-1" d="M598.18,458.27H801.55q54.42,0,88.23,9.93t52.85,27.32q19.1,17.36,25.66,40.64a183.15,183.15,0,0,1,6.57,50A82,82,0,0,1,968,619.65a83.49,83.49,0,0,1-19.08,27,109.44,109.44,0,0,1-28.79,19.24,120.41,120.41,0,0,1-36,10.24,97.31,97.31,0,0,1,31,10.24,100.92,100.92,0,0,1,26,19.56,97.34,97.34,0,0,1,18.16,26.67,74.62,74.62,0,0,1,6.87,31.65q0,19.9,3.15,31c2.07,7.44,6,11.19,11.89,11.19,9.57,0,14.39-6.64,14.39-19.88V766.12h41.92v34.13a157.7,157.7,0,0,1-4.38,37.23,82.51,82.51,0,0,1-15,31.67q-10.69,13.7-28.17,22.06t-43.79,8.37q-62,0-91.67-30.43t-29.72-85a267.07,267.07,0,0,0-1.88-34.76Q821,735.75,814.38,728c-4.38-5.17-10.76-8.79-19.09-10.86S775.89,714,762.13,714v96.2h38.15v81.93H598.18V810.18h35.06V539.58H598.18Zm164,80.69v105.5h28.14q27.56,0,43.82-12.71t16.27-37.54q0-27.94-14.72-41.6T793.4,539Z"/></clipPath><clipPath id="clip-path-2"><rect class="cls-2" x="70.22" y="70.21" width="3005.32" height="969.01"/></clipPath><clipPath id="clip-path-3"><path class="cls-1" d="M1066.24,607.87q9.35-5.61,23.75-13.06t32.23-14.59a258.8,258.8,0,0,1,38.19-11.77,187.6,187.6,0,0,1,42.21-4.66,300.35,300.35,0,0,1,58.2,5.89,172.77,172.77,0,0,1,54.76,20.48,121,121,0,0,1,40.66,39.42q16,24.84,16,62.06V812.69h37.55v79.43h-133.9l-15-27.92a88.15,88.15,0,0,1-19.71,19.55,99.36,99.36,0,0,1-22.53,12.11,128.45,128.45,0,0,1-42.22,8.07,161.34,161.34,0,0,1-44.44-6.23,126.85,126.85,0,0,1-39.4-18.62A95.72,95.72,0,0,1,1064,847.14q-11-19.56-10.94-46.89,0-26.07,10.32-47.15a108,108,0,0,1,28.14-36,128.37,128.37,0,0,1,41.61-23,154.69,154.69,0,0,1,50.06-8.06,101,101,0,0,1,43.48,9.3,66.36,66.36,0,0,1,12.52,7.45c3.15,2.47,5.11,4.15,5.94,5V686.07q0-21.11-16.87-27.92c-11.27-4.59-25.46-6.84-42.57-6.84q-28.15,0-51.6,9.28a377.42,377.42,0,0,0-41.61,19.27Zm138.91,215.35q14.37,0,25-6.83c7.12-4.54,12.11-9.08,15-13.63V779.17a27.78,27.78,0,0,0-2.79-4,31.75,31.75,0,0,0-6.57-5.89,49.13,49.13,0,0,0-11-5.6c-4.38-1.64-9.93-2.49-16.57-2.49q-18.78,0-27.53,9.31c-5.84,6.23-8.75,14.08-8.75,23.61,0,8.69,3.1,15.72,9.36,21.1S1195.53,823.22,1205.15,823.22Z"/></clipPath><clipPath id="clip-path-5"><polygon class="cls-1" points="1617.47 892.12 1434.76 892.12 1434.76 810.83 1461.68 810.83 1461.68 506.69 1435.38 506.69 1435.38 426.6 1580.57 426.6 1580.57 810.83 1617.47 810.83 1617.47 892.12"/></clipPath><clipPath id="clip-path-7"><polygon class="cls-1" points="1825.2 892.12 1642.49 892.12 1642.49 810.83 1669.41 810.83 1669.41 506.69 1643.13 506.69 1643.13 426.6 1788.28 426.6 1788.28 810.83 1825.2 810.83 1825.2 892.12"/></clipPath><clipPath id="clip-path-9"><path class="cls-1" d="M2073.62,660.61h-28.78V581.77h158.94v77h-30L2054.85,945.5q-6.92,14.88-15.95,30.41a110.12,110.12,0,0,1-24.11,28.25q-15,12.72-37.85,20.82t-56.61,8q-24.42-1.24-42.89-9.93a144.33,144.33,0,0,1-32.83-21.09l46.91-73.23a133.89,133.89,0,0,0,19.73,14.86q10.92,6.82,21.56,6.83,12.51,0,21.61-10.54a72.06,72.06,0,0,0,13.45-23l8.77-26.06-122-229.66H1829V581.77h192.72v78.84h-29.42L2033,757.44Z"/></clipPath><clipPath id="clip-path-11"><path class="cls-3" d="M2527.27,849.29q-35.1,29.81-73.84,41.91t-87.62,12.1a187.85,187.85,0,0,1-58.82-9.65,152.93,152.93,0,0,1-52.87-29.76q-23.49-20.14-38.48-52.16t-15-76.64q0-37.85,13.12-67.93a153.53,153.53,0,0,1,35.69-51.25A149.76,149.76,0,0,1,2302.61,584q30.69-10.86,66.31-10.87,38.8,0,68.55,11.16t49.73,31a128.07,128.07,0,0,1,30,46.86c6.67,18,10,37.53,10,58.66a158.66,158.66,0,0,1-1.92,24.51,121.54,121.54,0,0,1-5.62,22.66H2322.64a135.93,135.93,0,0,0,4.07,14.9,48.86,48.86,0,0,0,9.69,16.76c4.59,5.38,10.83,9.92,18.78,13.66s18.56,5.57,31.9,5.57c5.43,0,11.36-.2,17.83-.61a103,103,0,0,0,21-3.73,149.27,149.27,0,0,0,23.75-9,114.12,114.12,0,0,0,25-16.46ZM2372.7,656.88c-9.62,0-17.42,1.87-23.47,5.59a46.78,46.78,0,0,0-14.4,13.36,50.43,50.43,0,0,0-7.49,16.43,106.18,106.18,0,0,0-2.81,14.27H2419a87.24,87.24,0,0,0-1.85-17.68,47.06,47.06,0,0,0-6.59-16.13,33.44,33.44,0,0,0-13.76-11.49C2390.72,658.35,2382.71,656.88,2372.7,656.88Z"/></clipPath><clipPath id="clip-path-12"><rect class="cls-4" x="70.22" y="70.21" width="3005.32" height="969.01"/></clipPath><clipPath id="clip-path-13"><path class="cls-3" d="M2546,892.12V780.41h83.84c0,8.28,2.62,15.08,7.83,20.49a57.8,57.8,0,0,0,18.46,12.71,92.17,92.17,0,0,0,21.92,6.52,119.33,119.33,0,0,0,18.13,1.87,45.18,45.18,0,0,0,18.46-4q9.09-4.05,9.08-17.07,0-8.68-12.84-14a247.59,247.59,0,0,0-32.53-10.21q-19.71-5-42.21-11.79a179.67,179.67,0,0,1-42.26-19,102.66,102.66,0,0,1-32.54-31.63q-12.84-19.54-12.82-50,0-23.58,10.95-40.65A92.43,92.43,0,0,1,2587,595.75a124.94,124.94,0,0,1,35.67-16.12,134.74,134.74,0,0,1,35.95-5.3q31.93,0,57.58,14.26t35.67,34.16l5-41h77V693.5h-81.35a32.21,32.21,0,0,0-5.62-18.31,59.44,59.44,0,0,0-14.7-14.89,75.28,75.28,0,0,0-20.34-10.24,73.11,73.11,0,0,0-23.15-3.74,28.2,28.2,0,0,0-17.21,5.3q-7.2,5.26-7.19,17.06,0,10.56,13.14,16.76a241.18,241.18,0,0,0,32.84,12.12q19.71,5.87,42.86,13A195.33,195.33,0,0,1,2796,729.49a108.87,108.87,0,0,1,32.85,30.1Q2842,777.92,2842,806.48q0,21.72-9.69,39.11a94.27,94.27,0,0,1-25.66,29.46,112.63,112.63,0,0,1-37.21,18.3,155.45,155.45,0,0,1-43.83,6.23q-33.78,0-59.11-13.66t-36.63-31.65l-5.61,37.85Z"/></clipPath><clipPath id="clip-path-15"><path class="cls-3" d="M2863.88,581.77h33.76v-57.1l115.15-36.62v93.72h59.44v80.7h-59.44V772.94c0,2.93-.1,5.82-.33,8.7s-.3,6-.3,9.32a65.39,65.39,0,0,0,3.43,22q3.45,9.64,17.22,9.64c4.17,0,10.32-1.16,18.46-3.42a175.83,175.83,0,0,0,21-7.16v79.48a87,87,0,0,1-17.53,5.26q-10.63,2.18-21.89,3.43c-7.51.8-14.51,1.54-21,2.18s-11.57.9-15.34.9q-35,0-54.75-9.31t-29.09-26q-9.39-16.77-11.9-41t-3.13-54V662.47h-33.76Z"/></clipPath><clipPath id="clip-path-17"><path class="cls-3" d="M347,84.92C236.87,39.2,134.67,114.75,134.67,114.75L180.15,245.2s98.72-110.58,215.52-47.95c113.21,60.73,198,95,214.38-29C473.16,261.37,453,129,347,84.92"/></clipPath><clipPath id="clip-path-19"><path class="cls-3" d="M364.09,218.21C261.58,187,192,272,192,272l46.23,140.53s59.68-128,188.84-103.82c111.82,20.94,191.23,49.42,183.6-62.6-68.21,88.39-148.82,1.81-246.53-27.88"/></clipPath><clipPath id="clip-path-21"><path class="cls-1" d="M325.13,773.65a14.29,14.29,0,0,1-9.29,18.07,14.58,14.58,0,0,1-18.32-9.13L71,103.09a14.27,14.27,0,0,1,9.28-18,14.59,14.59,0,0,1,18.32,9.13Z"/></clipPath><clipPath id="clip-path-23"><path class="cls-1" d="M406.42,887.09Q340,821,336.55,830.45c-3.46,9.41-34.93,14.51-39.3,17.12q-4.33,2.58-32.09,39.52Z"/></clipPath></defs><title>Logo1</title><g id="Layer_2" data-name="Layer 2"><g id="Colour_palette_and_logo" data-name="Colour palette and logo"><path class="cls-5" d="M2251.61,992.33l-9.11,5.4q-2.55-4.43-4.87-5.78a11.3,11.3,0,0,0-6.21-1.54,11.47,11.47,0,0,0-7.76,2.65,8.22,8.22,0,0,0-3.08,6.55q0,5.45,8.09,8.77l7.42,3q9.06,3.68,13.25,8.94a20.13,20.13,0,0,1,4.2,12.94,22.74,22.74,0,0,1-6.85,17,23.46,23.46,0,0,1-17.1,6.75q-9.69,0-16-5.74t-7.76-16.14l11.38-2.5q.76,6.54,2.69,9.05,3.48,4.83,10.12,4.82a11.72,11.72,0,0,0,8.72-3.52,12.12,12.12,0,0,0,3.47-8.91,12.63,12.63,0,0,0-.6-4,10.09,10.09,0,0,0-1.88-3.32,14.92,14.92,0,0,0-3.3-2.84,32,32,0,0,0-4.82-2.53l-7.18-3q-15.27-6.45-15.27-18.89a17.9,17.9,0,0,1,6.41-14q6.41-5.68,15.95-5.68Q2244.38,979.81,2251.61,992.33Z"/><path class="cls-5" d="M2275.84,1008.72v26.93q0,11.65,9.21,11.66t9.2-11.66v-26.93h10.84v27.17a30,30,0,0,1-1.4,9.73,16.28,16.28,0,0,1-4.67,6.61q-5.49,4.77-14,4.77t-13.93-4.77a16.56,16.56,0,0,1-4.77-6.61q-1.35-3.27-1.35-9.73v-27.17Z"/><path class="cls-5" d="M2346.05,1016.71l-9,4.77q-2.11-4.34-5.25-4.33a3.61,3.61,0,0,0-2.55,1,3.28,3.28,0,0,0-1.06,2.53c0,1.79,2.09,3.58,6.26,5.34q8.63,3.72,11.61,6.85a11.65,11.65,0,0,1,3,8.43,14.77,14.77,0,0,1-5,11.37,17.05,17.05,0,0,1-11.76,4.34q-11.8,0-16.72-11.52l9.26-4.29a20.16,20.16,0,0,0,2.93,4.29,6.73,6.73,0,0,0,4.73,1.83q5.49,0,5.49-5,0-2.9-4.24-5.4c-1.09-.54-2.19-1.07-3.28-1.59s-2.2-1-3.32-1.59a20.28,20.28,0,0,1-6.65-4.62,11.39,11.39,0,0,1-2.46-7.57,13.41,13.41,0,0,1,4.19-10.12,14.74,14.74,0,0,1,10.41-4Q2341.67,1007.41,2346.05,1016.71Z"/><path class="cls-5" d="M2370,1018.83v36.82h-10.84v-36.82h-4.62v-10.11h4.62V991.51H2370v17.21h8.44v10.11Z"/><path class="cls-5" d="M2421.26,1008.72h10.89v46.93h-10.89v-4.92q-6.69,6.27-14.41,6.27a20.75,20.75,0,0,1-16.09-7q-6.32-7.18-6.31-17.92,0-10.56,6.31-17.59a20.36,20.36,0,0,1,15.8-7q8.21,0,14.7,6.75ZM2395.53,1032c0,4.49,1.21,8.16,3.61,11a11.85,11.85,0,0,0,9.35,4.29,12.43,12.43,0,0,0,9.73-4.14,17.84,17.84,0,0,0,0-21.78,12.23,12.23,0,0,0-9.63-4.19,12,12,0,0,0-9.35,4.24A15.64,15.64,0,0,0,2395.53,1032Z"/><path class="cls-5" d="M2444.2,989.2a7.07,7.07,0,0,1,7-7,6.82,6.82,0,0,1,5,2.07,6.67,6.67,0,0,1,2.07,5,6.82,6.82,0,0,1-2.07,5,6.67,6.67,0,0,1-5,2.07,7.07,7.07,0,0,1-7.08-7.13Zm12.47,19.52v46.93h-10.84v-46.93Z"/><path class="cls-5" d="M2470.41,1008.72h10.89v4.33a17.76,17.76,0,0,1,12.81-5.64q8.19,0,12.77,5.16,4,4.38,3.95,14.31v28.77h-10.89v-26.22c0-4.62-.64-7.82-1.92-9.58s-3.54-2.7-6.85-2.7c-3.59,0-6.15,1.19-7.66,3.56s-2.21,6.44-2.21,12.29v22.65h-10.89Z"/><path class="cls-5" d="M2566.15,1018.83v36.82h-10.84v-36.82h-4.63v-10.11h4.63V991.51h10.84v17.21h8.43v10.11Z"/><path class="cls-5" d="M2583.93,974.27h10.84v38.35a18.66,18.66,0,0,1,12.77-5.21q8,0,12.72,5.16,4,4.48,4,14.31v28.77h-10.84v-27.76c0-3.76-.66-6.48-2-8.16s-3.47-2.53-6.43-2.53q-5.69,0-8,3.51t-2.26,12.24v22.7h-10.84Z"/><path class="cls-5" d="M2680.78,1034.74h-33.64a14.24,14.24,0,0,0,3.76,9.2,11.46,11.46,0,0,0,8.53,3.37,11.07,11.07,0,0,0,6.7-1.93q2.6-1.92,5.92-7.13l9.16,5.11a37,37,0,0,1-4.48,6.19,24,24,0,0,1-5.06,4.24,20.11,20.11,0,0,1-5.83,2.43,28.08,28.08,0,0,1-6.8.78q-10.5,0-16.86-6.75t-6.36-18q0-11.13,6.17-18t16.48-6.8q10.35,0,16.38,6.61t6,18.16Zm-11.14-8.87q-2.26-8.67-10.93-8.67a11.23,11.23,0,0,0-3.71.6,10.68,10.68,0,0,0-3.16,1.73,11,11,0,0,0-2.43,2.73,12.37,12.37,0,0,0-1.54,3.61Z"/><path class="cls-5" d="M2780.13,985.25v13.3q-9.74-8.14-20.14-8.14a25.6,25.6,0,0,0-19.32,8.24,27.77,27.77,0,0,0-7.91,20,27.12,27.12,0,0,0,7.91,19.76,26.09,26.09,0,0,0,19.37,8,23.71,23.71,0,0,0,10.07-1.93,28.88,28.88,0,0,0,4.79-2.6,57.05,57.05,0,0,0,5.23-4v13.54a40.57,40.57,0,0,1-20.24,5.45,37.32,37.32,0,0,1-27.22-11.13,36.89,36.89,0,0,1-11.23-27.08,38.18,38.18,0,0,1,9.4-25.35q11.57-13.63,29.92-13.63A38,38,0,0,1,2780.13,985.25Z"/><path class="cls-5" d="M2792.22,974.27h10.84v38.35a18.68,18.68,0,0,1,12.77-5.21q8,0,12.72,5.16,4,4.48,4,14.31v28.77h-10.84v-27.76q0-5.64-2-8.16c-1.33-1.69-3.48-2.53-6.43-2.53q-5.68,0-8,3.51t-2.27,12.24v22.7h-10.84Z"/><path class="cls-5" d="M2880.93,1008.72h10.89v46.93h-10.89v-4.92q-6.7,6.27-14.41,6.27a20.75,20.75,0,0,1-16.09-7q-6.32-7.18-6.31-17.92,0-10.56,6.31-17.59a20.34,20.34,0,0,1,15.8-7q8.19,0,14.7,6.75ZM2855.2,1032c0,4.49,1.2,8.16,3.61,11a11.83,11.83,0,0,0,9.35,4.29,12.44,12.44,0,0,0,9.73-4.14,17.84,17.84,0,0,0,0-21.78,12.23,12.23,0,0,0-9.63-4.19,12,12,0,0,0-9.35,4.24A15.6,15.6,0,0,0,2855.2,1032Z"/><path class="cls-5" d="M2905.5,1008.72h10.89v4.33a17.76,17.76,0,0,1,12.82-5.64q8.19,0,12.77,5.16,3.95,4.38,3.95,14.31v28.77H2935v-26.22c0-4.62-.65-7.82-1.93-9.58s-3.53-2.7-6.84-2.7q-5.4,0-7.66,3.56t-2.22,12.29v22.65H2905.5Z"/><path class="cls-5" d="M3005,1054.54c0,2.21-.07,4.17-.22,5.85a39.06,39.06,0,0,1-.6,4.46,19.86,19.86,0,0,1-4.53,9.11q-6.36,7.32-17.49,7.32-9.39,0-15.47-5.06-6.26-5.21-7.22-14.41h10.89a12.12,12.12,0,0,0,2.07,5.35q3.36,4.38,9.83,4.39,11.89,0,11.9-14.6v-6.56q-6.47,6.61-14.89,6.61a20,20,0,0,1-15.71-6.94q-6.17-7-6.17-17.59a27,27,0,0,1,5.74-17.44,19.91,19.91,0,0,1,16.28-7.62,18.94,18.94,0,0,1,14.75,6.61v-5.3H3005Zm-10.41-22.26q0-6.84-3.66-10.94a12.12,12.12,0,0,0-9.49-4.19,11.66,11.66,0,0,0-9.74,4.58q-3.22,4.1-3.22,10.6a16.46,16.46,0,0,0,3.22,10.5,11.69,11.69,0,0,0,9.74,4.48,11.91,11.91,0,0,0,9.83-4.53A16.16,16.16,0,0,0,2994.59,1032.28Z"/><path class="cls-5" d="M3061.42,1034.74h-33.63a14.24,14.24,0,0,0,3.76,9.2,11.44,11.44,0,0,0,8.53,3.37,11,11,0,0,0,6.69-1.93q2.61-1.92,5.93-7.13l9.16,5.11a36.48,36.48,0,0,1-4.49,6.19,23.71,23.71,0,0,1-5.06,4.24,20,20,0,0,1-5.83,2.43,28,28,0,0,1-6.79.78q-10.5,0-16.86-6.75t-6.36-18q0-11.13,6.16-18t16.48-6.8q10.36,0,16.38,6.61t6,18.16Zm-11.13-8.87q-2.26-8.67-10.94-8.67a11.32,11.32,0,0,0-3.71.6,10.63,10.63,0,0,0-3.15,1.73,11.21,11.21,0,0,0-2.44,2.73,12.94,12.94,0,0,0-1.54,3.61Z"/><path class="cls-6" d="M598.18,458.27H801.55q54.42,0,88.23,9.93t52.85,27.32q19.1,17.36,25.66,40.64a183.15,183.15,0,0,1,6.57,50A82,82,0,0,1,968,619.65a83.49,83.49,0,0,1-19.08,27,109.44,109.44,0,0,1-28.79,19.24,120.41,120.41,0,0,1-36,10.24,97.31,97.31,0,0,1,31,10.24,100.92,100.92,0,0,1,26,19.56,97.34,97.34,0,0,1,18.16,26.67,74.62,74.62,0,0,1,6.87,31.65q0,19.9,3.15,31c2.07,7.44,6,11.19,11.89,11.19,9.57,0,14.39-6.64,14.39-19.88V766.12h41.92v34.13a157.7,157.7,0,0,1-4.38,37.23,82.51,82.51,0,0,1-15,31.67q-10.69,13.7-28.17,22.06t-43.79,8.37q-62,0-91.67-30.43t-29.72-85a267.07,267.07,0,0,0-1.88-34.76Q821,735.75,814.38,728c-4.38-5.17-10.76-8.79-19.09-10.86S775.89,714,762.13,714v96.2h38.15v81.93H598.18V810.18h35.06V539.58H598.18Zm164,80.69v105.5h28.14q27.56,0,43.82-12.71t16.27-37.54q0-27.94-14.72-41.6T793.4,539Z"/><g class="cls-7"><rect class="cls-2" x="70.22" y="70.21" width="3005.32" height="969.01"/><g class="cls-8"><rect class="cls-2" x="527.96" y="388.05" width="579.7" height="581.76"/></g></g><path class="cls-6" d="M1066.24,607.87q9.35-5.61,23.75-13.06t32.23-14.59a258.8,258.8,0,0,1,38.19-11.77,187.6,187.6,0,0,1,42.21-4.66,300.35,300.35,0,0,1,58.2,5.89,172.77,172.77,0,0,1,54.76,20.48,121,121,0,0,1,40.66,39.42q16,24.84,16,62.06V812.69h37.55v79.43h-133.9l-15-27.92a88.15,88.15,0,0,1-19.71,19.55,99.36,99.36,0,0,1-22.53,12.11,128.45,128.45,0,0,1-42.22,8.07,161.34,161.34,0,0,1-44.44-6.23,126.85,126.85,0,0,1-39.4-18.62A95.72,95.72,0,0,1,1064,847.14q-11-19.56-10.94-46.89,0-26.07,10.32-47.15a108,108,0,0,1,28.14-36,128.37,128.37,0,0,1,41.61-23,154.69,154.69,0,0,1,50.06-8.06,101,101,0,0,1,43.48,9.3,66.36,66.36,0,0,1,12.52,7.45c3.15,2.47,5.11,4.15,5.94,5V686.07q0-21.11-16.87-27.92c-11.27-4.59-25.46-6.84-42.57-6.84q-28.15,0-51.6,9.28a377.42,377.42,0,0,0-41.61,19.27Zm138.91,215.35q14.37,0,25-6.83c7.12-4.54,12.11-9.08,15-13.63V779.17a27.78,27.78,0,0,0-2.79-4,31.75,31.75,0,0,0-6.57-5.89,49.13,49.13,0,0,0-11-5.6c-4.38-1.64-9.93-2.49-16.57-2.49q-18.78,0-27.53,9.31c-5.84,6.23-8.75,14.08-8.75,23.61,0,8.69,3.1,15.72,9.36,21.1S1195.53,823.22,1205.15,823.22Z"/><g class="cls-9"><rect class="cls-2" x="70.22" y="70.21" width="3005.32" height="969.01"/><g class="cls-8"><rect class="cls-2" x="982.88" y="493.56" width="497.08" height="480.58"/></g></g><polygon class="cls-6" points="1617.47 892.12 1434.76 892.12 1434.76 810.83 1461.68 810.83 1461.68 506.69 1435.38 506.69 1435.38 426.6 1580.57 426.6 1580.57 810.83 1617.47 810.83 1617.47 892.12"/><g class="cls-10"><rect class="cls-2" x="70.22" y="70.21" width="3005.32" height="969.01"/><g class="cls-8"><rect class="cls-2" x="1364.54" y="356.39" width="323.15" height="605.95"/></g></g><polygon class="cls-6" points="1825.2 892.12 1642.49 892.12 1642.49 810.83 1669.41 810.83 1669.41 506.69 1643.13 506.69 1643.13 426.6 1788.28 426.6 1788.28 810.83 1825.2 810.83 1825.2 892.12"/><g class="cls-11"><rect class="cls-2" x="70.22" y="70.21" width="3005.32" height="969.01"/><g class="cls-8"><rect class="cls-2" x="1572.27" y="356.39" width="323.14" height="605.95"/></g></g><path class="cls-6" d="M2073.62,660.61h-28.78V581.77h158.94v77h-30L2054.85,945.5q-6.92,14.88-15.95,30.41a110.12,110.12,0,0,1-24.11,28.25q-15,12.72-37.85,20.82t-56.61,8q-24.42-1.24-42.89-9.93a144.33,144.33,0,0,1-32.83-21.09l46.91-73.23a133.89,133.89,0,0,0,19.73,14.86q10.92,6.82,21.56,6.83,12.51,0,21.61-10.54a72.06,72.06,0,0,0,13.45-23l8.77-26.06-122-229.66H1829V581.77h192.72v78.84h-29.42L2033,757.44Z"/><g class="cls-12"><rect class="cls-2" x="70.22" y="70.21" width="3005.32" height="969.01"/><g class="cls-8"><rect class="cls-2" x="1758.74" y="511.56" width="515.26" height="591.68"/></g></g><g class="cls-13"><g class="cls-14"><rect class="cls-15" x="2130.41" y="502.88" width="467.08" height="470.64"/></g></g><g class="cls-16"><g class="cls-14"><rect class="cls-15" x="2475.79" y="504.12" width="436.41" height="465.69"/></g></g><g class="cls-17"><g class="cls-14"><rect class="cls-15" x="2793.66" y="417.83" width="348.78" height="555.67"/></g></g><g class="cls-18"><g class="cls-14"><rect class="cls-15" x="64.45" width="615.82" height="322.26"/></g></g><g class="cls-19"><g class="cls-14"><rect class="cls-5" x="121.74" y="141.12" width="559.61" height="341.62"/></g></g><path class="cls-6" d="M325.13,773.65a14.29,14.29,0,0,1-9.29,18.07,14.58,14.58,0,0,1-18.32-9.13L71,103.09a14.27,14.27,0,0,1,9.28-18,14.59,14.59,0,0,1,18.32,9.13Z"/><g class="cls-20"><rect class="cls-2" x="70.22" y="70.21" width="3005.32" height="969.01"/><g class="cls-8"><rect class="cls-2" y="14.11" width="396.07" height="848.54"/></g></g><path class="cls-6" d="M406.42,887.09Q340,821,336.55,830.45c-3.46,9.41-34.93,14.51-39.3,17.12q-4.33,2.58-32.09,39.52Z"/><g class="cls-21"><rect class="cls-2" x="70.22" y="70.21" width="3005.32" height="969.01"/><g class="cls-8"><rect class="cls-2" x="194.94" y="759.05" width="281.7" height="198.25"/></g></g></g></g></svg>