<svg xmlns="http://www.w3.org/2000/svg" xmlns:xlink="http://www.w3.org/1999/xlink" viewBox="0 0 2635.41 1055"><defs><style>.cls-1,.cls-10,.cls-2{fill:#fff;}.cls-1,.cls-3{clip-rule:evenodd;}.cls-3,.cls-4{fill:none;}.cls-5{fill:#0d6192;}.cls-6{font-size:80.84px;font-family:Futura-Medium, Futura;}.cls-24,.cls-6{fill:#1cb2e3;}.cls-7{letter-spacing:0.01em;}.cls-8{letter-spacing:0em;}.cls-9{letter-spacing:0.02em;}.cls-10{fill-rule:evenodd;}.cls-11{clip-path:url(#clip-path);}.cls-12{clip-path:url(#clip-path-2);}.cls-13{clip-path:url(#clip-path-3);}.cls-14{clip-path:url(#clip-path-5);}.cls-15{clip-path:url(#clip-path-7);}.cls-16{clip-path:url(#clip-path-9);}.cls-17{clip-path:url(#clip-path-11);}.cls-18{clip-path:url(#clip-path-12);}.cls-19{fill:#ffce05;}.cls-20{clip-path:url(#clip-path-13);}.cls-21{clip-path:url(#clip-path-15);}.cls-22{clip-path:url(#clip-path-17);}.cls-23{clip-path:url(#clip-path-19);}.cls-25{clip-path:url(#clip-path-21);}.cls-26{clip-path:url(#clip-path-23);}</style><clipPath id="clip-path"><path class="cls-1" d="M490,412.13h166.6q44.58,0,72.28,8.13t43.3,22.38a70.28,70.28,0,0,1,21,33.3,150,150,0,0,1,5.38,40.92A67.19,67.19,0,0,1,793,544.33a68.65,68.65,0,0,1-15.63,22.13,90.06,90.06,0,0,1-23.59,15.76,99.09,99.09,0,0,1-29.47,8.39A79.62,79.62,0,0,1,749.67,599a83,83,0,0,1,21.27,16,79.84,79.84,0,0,1,14.88,21.85,61.09,61.09,0,0,1,5.62,25.92q0,16.32,2.58,25.44c1.7,6.1,5,9.17,9.74,9.17,7.84,0,11.8-5.44,11.8-16.28V664.33h34.33v28a129.52,129.52,0,0,1-3.58,30.5A67.61,67.61,0,0,1,834,748.73a63.54,63.54,0,0,1-23.07,18.07q-14.36,6.86-35.88,6.86-50.77,0-75.1-24.93t-24.35-69.65a220.58,220.58,0,0,0-1.53-28.48q-1.55-11.16-6.93-17.53c-3.58-4.24-8.81-7.21-15.63-8.9s-15.9-2.56-27.17-2.56v78.81H655.6v67.12H490V700.42h28.72V478.74H490Zm134.31,66.11v86.42h23q22.58,0,35.9-10.41t13.33-30.76q0-22.87-12.06-34.07T650,478.24Z"/></clipPath><clipPath id="clip-path-2"><rect class="cls-2" x="57.53" y="94.23" width="2462.01" height="793.83"/></clipPath><clipPath id="clip-path-3"><path class="cls-1" d="M873.48,534.68q7.66-4.59,19.46-10.69t26.4-12a211.46,211.46,0,0,1,31.28-9.65,154.15,154.15,0,0,1,34.59-3.81,246.37,246.37,0,0,1,47.67,4.82,141.53,141.53,0,0,1,44.87,16.78,99.1,99.1,0,0,1,33.3,32.3q13.1,20.32,13.07,50.84v99.16h30.76v65.07H1045.19l-12.31-22.87a72,72,0,0,1-16.14,16,81.06,81.06,0,0,1-18.46,9.92,105.34,105.34,0,0,1-34.58,6.61,132.44,132.44,0,0,1-36.41-5.1A104.18,104.18,0,0,1,895,756.86a78.55,78.55,0,0,1-23.34-26.16q-9-16-9-38.41,0-21.36,8.46-38.63a88.58,88.58,0,0,1,23.05-29.49,105.29,105.29,0,0,1,34.09-18.82,126.91,126.91,0,0,1,41-6.6,83.13,83.13,0,0,1,35.62,7.61,55.1,55.1,0,0,1,10.26,6.11c2.57,2,4.19,3.4,4.86,4.07V598.75q0-17.29-13.82-22.88c-9.23-3.76-20.86-5.59-34.87-5.59a113.82,113.82,0,0,0-42.27,7.6A309.57,309.57,0,0,0,895,593.66Zm113.8,176.43a37,37,0,0,0,20.48-5.6q8.75-5.58,12.3-11.17V675a21.68,21.68,0,0,0-2.29-3.31,25.33,25.33,0,0,0-5.38-4.82,39.72,39.72,0,0,0-9-4.59,39.26,39.26,0,0,0-13.57-2c-10.27,0-17.77,2.53-22.56,7.62s-7.17,11.54-7.17,19.34c0,7.12,2.54,12.88,7.67,17.29S979.4,711.11,987.28,711.11Z"/></clipPath><clipPath id="clip-path-5"><polygon class="cls-1" points="1325.06 767.55 1175.37 767.55 1175.37 700.95 1197.43 700.95 1197.43 451.8 1175.89 451.8 1175.89 386.19 1294.83 386.19 1294.83 700.95 1325.06 700.95 1325.06 767.55"/></clipPath><clipPath id="clip-path-7"><polygon class="cls-1" points="1495.23 767.55 1345.55 767.55 1345.55 700.95 1367.61 700.95 1367.61 451.8 1346.08 451.8 1346.08 386.19 1464.99 386.19 1464.99 700.95 1495.23 700.95 1495.23 767.55"/></clipPath><clipPath id="clip-path-9"><path class="cls-1" d="M1698.75,577.9h-23.58V513.31h130.2v63.07h-24.61l-97.39,234.9q-5.67,12.19-13.07,24.91a90.05,90.05,0,0,1-19.75,23.14q-12.3,10.42-31,17.06T1573.16,883q-20-1-35.13-8.14a118.45,118.45,0,0,1-26.9-17.27l38.44-60a109,109,0,0,0,16.15,12.18q9,5.6,17.67,5.59,10.24,0,17.7-8.63a59,59,0,0,0,11-18.82l7.18-21.35-100-188.14h-21V513.31h157.88V577.9h-24.1l33.34,79.32Z"/></clipPath><clipPath id="clip-path-11"><path class="cls-3" d="M2070.38,732.46q-28.76,24.42-60.49,34.33t-71.78,9.92a153.86,153.86,0,0,1-48.19-7.91,125.34,125.34,0,0,1-43.31-24.38q-19.24-16.5-31.53-42.73t-12.29-62.78q0-31,10.75-55.66a125.51,125.51,0,0,1,29.23-42,122.77,122.77,0,0,1,43.57-26.18,161.65,161.65,0,0,1,54.32-8.9q31.78,0,56.15,9.14t40.74,25.43a105,105,0,0,1,24.61,38.39,137.36,137.36,0,0,1,8.22,48.06,130.2,130.2,0,0,1-1.57,20.08,99.59,99.59,0,0,1-4.61,18.56H1902.74a112.63,112.63,0,0,0,3.34,12.21,40.09,40.09,0,0,0,7.93,13.72A44.92,44.92,0,0,0,1929.4,703q9.72,4.56,26.14,4.57,6.66,0,14.6-.5a83.94,83.94,0,0,0,17.19-3.06,121.42,121.42,0,0,0,19.46-7.37,93.25,93.25,0,0,0,20.51-13.48ZM1943.75,574.84q-11.8,0-19.22,4.58a38.23,38.23,0,0,0-11.8,10.94,41.07,41.07,0,0,0-6.13,13.46,86.6,86.6,0,0,0-2.31,11.69h77.39a71.14,71.14,0,0,0-1.52-14.48,38.51,38.51,0,0,0-5.4-13.22,27.43,27.43,0,0,0-11.27-9.41C1958.51,576,1952,574.84,1943.75,574.84Z"/></clipPath><clipPath id="clip-path-12"><rect class="cls-4" x="57.53" y="94.23" width="2462.01" height="793.83"/></clipPath><clipPath id="clip-path-13"><path class="cls-3" d="M2085.73,767.55V676h68.68c0,6.78,2.14,12.36,6.41,16.79A47.3,47.3,0,0,0,2176,703.23a75.12,75.12,0,0,0,18,5.34,96.63,96.63,0,0,0,14.85,1.54,37,37,0,0,0,15.13-3.31q7.44-3.31,7.43-14,0-7.12-10.51-11.47a203.72,203.72,0,0,0-26.65-8.37q-16.16-4.05-34.58-9.66A147.36,147.36,0,0,1,2125,647.79a84.1,84.1,0,0,1-26.66-25.91q-10.51-16-10.5-40.94,0-19.31,9-33.29a75.65,75.65,0,0,1,22.55-22.89,102.34,102.34,0,0,1,29.22-13.21,110.5,110.5,0,0,1,29.46-4.34q26.16,0,47.16,11.68t29.23,28l4.1-33.57h63.05v91.53h-66.65a26.31,26.31,0,0,0-4.6-15,48.39,48.39,0,0,0-12.05-12.2,61.33,61.33,0,0,0-16.66-8.39,59.85,59.85,0,0,0-19-3.07,23.13,23.13,0,0,0-14.1,4.34q-5.9,4.34-5.89,14,0,8.64,10.76,13.72a197.83,197.83,0,0,0,26.91,9.93q16.14,4.82,35.11,10.67a160.13,160.13,0,0,1,35.12,15.49A89.4,89.4,0,0,1,2317.43,659q10.77,15,10.76,38.41a64.7,64.7,0,0,1-7.94,32,77.23,77.23,0,0,1-21,24.14,92.57,92.57,0,0,1-30.48,15,127.78,127.78,0,0,1-35.91,5.1q-27.68,0-48.42-11.19t-30-25.93l-4.6,31Z"/></clipPath><clipPath id="clip-path-15"><path class="cls-3" d="M2346.14,513.31h27.65V466.53l94.34-30v76.78h48.69v66.11h-48.69v90.5q0,3.58-.27,7.12c-.16,2.38-.25,4.92-.25,7.64a53.55,53.55,0,0,0,2.81,18c1.89,5.27,6.58,7.89,14.11,7.89,3.42,0,8.45-1,15.12-2.8a144.65,144.65,0,0,0,17.17-5.86v65.11a71.68,71.68,0,0,1-14.36,4.31q-8.72,1.77-17.93,2.8c-6.16.66-11.89,1.27-17.17,1.79s-9.48.74-12.57.74q-28.7,0-44.85-7.63t-23.83-21.33q-7.71-13.74-9.75-33.57t-2.57-44.25v-90.5h-27.65Z"/></clipPath><clipPath id="clip-path-17"><path class="cls-3" d="M284.23,106.28c-90.18-37.46-173.91,24.43-173.91,24.43l37.26,106.87S228.45,147,324.14,198.3c92.74,49.75,162.16,77.82,175.62-23.75-112.14,76.28-128.68-32.15-215.53-68.27"/></clipPath><clipPath id="clip-path-19"><path class="cls-3" d="M298.26,215.47c-84-25.54-141,44-141,44l37.87,115.13s48.89-104.9,154.7-85.06c91.6,17.16,156.66,40.49,150.41-51.28-55.88,72.41-121.91,1.48-202-22.84"/></clipPath><clipPath id="clip-path-21"><path class="cls-1" d="M266.35,670.5a11.7,11.7,0,0,1-7.6,14.8,12,12,0,0,1-15-7.48L58.12,121.16a11.68,11.68,0,0,1,7.61-14.78,11.94,11.94,0,0,1,15,7.48Z"/></clipPath><clipPath id="clip-path-23"><path class="cls-1" d="M332.94,763.43q-54.4-54.12-57.24-46.4c-2.83,7.7-28.61,11.89-32.19,14q-3.56,2.12-26.29,32.38Z"/></clipPath></defs><title>Logo White</title><g id="Layer_2" data-name="Layer 2"><g id="Colour_palette_and_logo" data-name="Colour palette and logo"><rect class="cls-5" x="9.41" width="2626" height="1055"/><text class="cls-6" transform="translate(1802.79 901.51)">Sus<tspan class="cls-7" x="123.98" y="0">t</tspan><tspan class="cls-8" x="146.8" y="0">ain </tspan><tspan class="cls-9" x="284.67" y="0">t</tspan><tspan x="308.4" y="0">he Change</tspan></text><path class="cls-10" d="M490,412.13h166.6q44.58,0,72.28,8.13t43.3,22.38a70.28,70.28,0,0,1,21,33.3,150,150,0,0,1,5.38,40.92A67.19,67.19,0,0,1,793,544.33a68.65,68.65,0,0,1-15.63,22.13,90.06,90.06,0,0,1-23.59,15.76,99.09,99.09,0,0,1-29.47,8.39A79.62,79.62,0,0,1,749.67,599a83,83,0,0,1,21.27,16,79.84,79.84,0,0,1,14.88,21.85,61.09,61.09,0,0,1,5.62,25.92q0,16.32,2.58,25.44c1.7,6.1,5,9.17,9.74,9.17,7.84,0,11.8-5.44,11.8-16.28V664.33h34.33v28a129.52,129.52,0,0,1-3.58,30.5A67.61,67.61,0,0,1,834,748.73a63.54,63.54,0,0,1-23.07,18.07q-14.36,6.86-35.88,6.86-50.77,0-75.1-24.93t-24.35-69.65a220.58,220.58,0,0,0-1.53-28.48q-1.55-11.16-6.93-17.53c-3.58-4.24-8.81-7.21-15.63-8.9s-15.9-2.56-27.17-2.56v78.81H655.6v67.12H490V700.42h28.72V478.74H490Zm134.31,66.11v86.42h23q22.58,0,35.9-10.41t13.33-30.76q0-22.87-12.06-34.07T650,478.24Z"/><g class="cls-11"><rect class="cls-2" x="57.53" y="94.23" width="2462.01" height="793.83"/><g class="cls-12"><rect class="cls-2" x="432.52" y="354.61" width="474.9" height="476.59"/></g></g><path class="cls-10" d="M873.48,534.68q7.66-4.59,19.46-10.69t26.4-12a211.46,211.46,0,0,1,31.28-9.65,154.15,154.15,0,0,1,34.59-3.81,246.37,246.37,0,0,1,47.67,4.82,141.53,141.53,0,0,1,44.87,16.78,99.1,99.1,0,0,1,33.3,32.3q13.1,20.32,13.07,50.84v99.16h30.76v65.07H1045.19l-12.31-22.87a72,72,0,0,1-16.14,16,81.06,81.06,0,0,1-18.46,9.92,105.34,105.34,0,0,1-34.58,6.61,132.44,132.44,0,0,1-36.41-5.1A104.18,104.18,0,0,1,895,756.86a78.55,78.55,0,0,1-23.34-26.16q-9-16-9-38.41,0-21.36,8.46-38.63a88.58,88.58,0,0,1,23.05-29.49,105.29,105.29,0,0,1,34.09-18.82,126.91,126.91,0,0,1,41-6.6,83.13,83.13,0,0,1,35.62,7.61,55.1,55.1,0,0,1,10.26,6.11c2.57,2,4.19,3.4,4.86,4.07V598.75q0-17.29-13.82-22.88c-9.23-3.76-20.86-5.59-34.87-5.59a113.82,113.82,0,0,0-42.27,7.6A309.57,309.57,0,0,0,895,593.66Zm113.8,176.43a37,37,0,0,0,20.48-5.6q8.75-5.58,12.3-11.17V675a21.68,21.68,0,0,0-2.29-3.31,25.33,25.33,0,0,0-5.38-4.82,39.72,39.72,0,0,0-9-4.59,39.26,39.26,0,0,0-13.57-2c-10.27,0-17.77,2.53-22.56,7.62s-7.17,11.54-7.17,19.34c0,7.12,2.54,12.88,7.67,17.29S979.4,711.11,987.28,711.11Z"/><g class="cls-13"><rect class="cls-2" x="57.53" y="94.23" width="2462.01" height="793.83"/><g class="cls-12"><rect class="cls-2" x="805.19" y="441.04" width="407.21" height="393.7"/></g></g><polygon class="cls-10" points="1325.06 767.55 1175.37 767.55 1175.37 700.95 1197.43 700.95 1197.43 451.8 1175.89 451.8 1175.89 386.19 1294.83 386.19 1294.83 700.95 1325.06 700.95 1325.06 767.55"/><g class="cls-14"><rect class="cls-2" x="57.53" y="94.23" width="2462.01" height="793.83"/><g class="cls-12"><rect class="cls-2" x="1117.85" y="328.67" width="264.73" height="496.4"/></g></g><polygon class="cls-10" points="1495.23 767.55 1345.55 767.55 1345.55 700.95 1367.61 700.95 1367.61 451.8 1346.08 451.8 1346.08 386.19 1464.99 386.19 1464.99 700.95 1495.23 700.95 1495.23 767.55"/><g class="cls-15"><rect class="cls-2" x="57.53" y="94.23" width="2462.01" height="793.83"/><g class="cls-12"><rect class="cls-2" x="1288.03" y="328.67" width="264.72" height="496.4"/></g></g><path class="cls-10" d="M1698.75,577.9h-23.58V513.31h130.2v63.07h-24.61l-97.39,234.9q-5.67,12.19-13.07,24.91a90.05,90.05,0,0,1-19.75,23.14q-12.3,10.42-31,17.06T1573.16,883q-20-1-35.13-8.14a118.45,118.45,0,0,1-26.9-17.27l38.44-60a109,109,0,0,0,16.15,12.18q9,5.6,17.67,5.59,10.24,0,17.7-8.63a59,59,0,0,0,11-18.82l7.18-21.35-100-188.14h-21V513.31h157.88V577.9h-24.1l33.34,79.32Z"/><g class="cls-16"><rect class="cls-2" x="57.53" y="94.23" width="2462.01" height="793.83"/><g class="cls-12"><rect class="cls-2" x="1440.79" y="455.79" width="422.11" height="484.71"/></g></g><g class="cls-17"><g class="cls-18"><rect class="cls-19" x="1745.26" y="448.67" width="382.64" height="385.56"/></g></g><g class="cls-20"><g class="cls-18"><rect class="cls-19" x="2028.21" y="449.69" width="357.51" height="381.5"/></g></g><g class="cls-21"><g class="cls-18"><rect class="cls-19" x="2288.61" y="379" width="285.73" height="455.21"/></g></g><g class="cls-22"><g class="cls-18"><rect class="cls-19" x="52.8" y="36.71" width="504.49" height="264"/></g></g><g class="cls-23"><g class="cls-18"><rect class="cls-24" x="99.73" y="152.31" width="458.44" height="279.86"/></g></g><path class="cls-10" d="M266.35,670.5a11.7,11.7,0,0,1-7.6,14.8,12,12,0,0,1-15-7.48L58.12,121.16a11.68,11.68,0,0,1,7.61-14.78,11.94,11.94,0,0,1,15,7.48Z"/><g class="cls-25"><rect class="cls-2" x="57.53" y="94.23" width="2462.01" height="793.83"/><g class="cls-12"><rect class="cls-2" y="48.27" width="324.46" height="695.13"/></g></g><path class="cls-10" d="M332.94,763.43q-54.4-54.12-57.24-46.4c-2.83,7.7-28.61,11.89-32.19,14q-3.56,2.12-26.29,32.38Z"/><g class="cls-26"><rect class="cls-2" x="57.53" y="94.23" width="2462.01" height="793.83"/><g class="cls-12"><rect class="cls-2" x="159.7" y="658.54" width="230.77" height="162.41"/></g></g></g></g></svg>