<svg xmlns="http://www.w3.org/2000/svg" width="37" height="37" viewBox="0 0 37 37">
    <g fill="none" fill-rule="evenodd">
        <circle cx="18.153" cy="18.153" r="18" fill="#FFCE05"/>
        <g fill="#FFF">
            <path d="M20.044 18.036a.534.534 0 0 0-.614 0l-1.765 1.854-3.285-2.658a.746.746 0 0 0-.856 0l-3.436 3.56v2.568h13.307v-3.094h-.008l-3.343-2.23z"/>
            <path d="M16.606 16.175c-.531 0-.988.325-1.184.787l1.93 1.561c.327-.234.543-.617.543-1.053 0-.715-.577-1.295-1.289-1.295z"/>
            <path d="M9.189 13.621c-.597 0-1.083.45-1.083 1.003v9.687c0 .553.486 1.004 1.083 1.004H24.16c.597 0 1.082-.45 1.082-1.004v-9.687c0-.553-.485-1.003-1.082-1.003H9.189zM24.16 26.027H9.189c-.995 0-1.804-.77-1.804-1.716v-9.687c0-.946.809-1.715 1.804-1.715H24.16c.995 0 1.804.77 1.804 1.715v9.687c0 .946-.81 1.716-1.804 1.716z"/>
            <path d="M25.987 24.375c-.093 0-.19-.007-.291-.019a.357.357 0 1 1 .088-.706c.59.071.875-.134.945-.687l1.193-9.615c.068-.55-.358-1.054-.95-1.126L12.11 10.424c-.59-.072-1.13.316-1.198.866l-.283 2.047a.36.36 0 0 1-.407.305.358.358 0 0 1-.308-.402l.282-2.042c.117-.934 1.011-1.6 2.002-1.481l14.862 1.798c.986.12 1.695.98 1.578 1.92l-1.193 9.615c-.107.854-.632 1.325-1.458 1.325"/>
        </g>
    </g>
</svg>
