<svg xmlns="http://www.w3.org/2000/svg" width="18" height="18" viewBox="0 0 15 18">
    <path fill="#E1E6E7" fill-rule="evenodd" d="M13.79 12.563c-.55.201-2.265.658-6.458.658-4.204 0-5.916-.46-6.457-.656v-.758c2.343-1.176 2.69-3.602 3.09-6.395l.09-.636c.15-1.013.659-1.65 1.555-1.943a.461.461 0 0 0 .309-.434c.017-.81.651-1.47 1.413-1.47s1.396.66 1.413 1.47c.005.2.13.375.31.434.895.294 1.404.93 1.553 1.943l.091.635c.4 2.793.747 5.22 3.09 6.396v.756zm.602-1.49c-2.13-.923-2.422-2.969-2.827-5.802l-.093-.638c-.184-1.253-.832-2.14-1.88-2.584C9.414.893 8.46 0 7.331 0c-1.129 0-2.084.894-2.26 2.05-1.048.443-1.696 1.33-1.88 2.584l-.093.639c-.405 2.832-.698 4.879-2.827 5.8a.466.466 0 0 0-.272.431v1.37c0 .16.079.311.208.395.137.09 1.507.882 7.124.882s6.987-.791 7.125-.882a.471.471 0 0 0 .207-.395v-1.37a.466.466 0 0 0-.272-.43zm-5.71 5.029a1.679 1.679 0 0 1-1.353.7c-.834 0-1.543-.646-1.681-1.515a40.97 40.97 0 0 1-.885-.037c.002.024.001.05.004.075.16 1.372 1.262 2.407 2.562 2.407.108 0 .216-.007.322-.02a2.537 2.537 0 0 0 1.72-1.04 2.82 2.82 0 0 0 .532-1.422c-.28.015-.574.027-.884.037-.047.294-.16.572-.338.815z"/>
</svg>
